<svg fill="none" xmlns="http://www.w3.org/2000/svg" viewBox="0 0 191 217">
  <path fill-rule="evenodd" clip-rule="evenodd" d="M156.205 77.252c-2.55.293-4.647 2.341-4.648 4.908-.009 22.204-18.016 40.196-40.219 40.187-.495 0-.922.344-1.029.827l-6.859 31.182a103.256 103.256 0 00-2.412 22.144c-.004 11.348 9.077 20.485 20.366 21.647 16.724 1.722 27.989 4.95 27.987 8.643-.002 5.492-24.919 9.935-55.654 9.922-30.734-.012-55.648-4.474-55.646-9.967.002-3.725 11.462-6.967 28.425-8.664 11.282-1.129 20.371-10.248 20.376-21.587a103.26 103.26 0 00-2.394-22.145l-6.835-31.188a1.054 1.054 0 00-1.027-.828c-22.204-.008-40.196-18.015-40.187-40.219v-1.862c.001-1.608-1.253-2.926-2.847-3.142A38.722 38.722 0 0136.448.087a.036.036 0 00.034-.036c0-.02.016-.036.036-.036L151.59.06h.001a38.723 38.723 0 014.614 77.191zm-4.623-56.768c.002-5.918 4.935-10.911 10.47-8.816a29 29 0 0117.192 17.806 28.998 28.998 0 01-2.818 24.59 29 29 0 01-20.776 13.454c-2.248.302-4.086-1.573-4.085-3.841l.017-43.193zM28.55 11.614c4.108-1.551 7.926 1.983 7.924 6.375l-.019 48.09c0 .84-.717 1.503-1.549 1.39a28.992 28.992 0 01-6.357-55.855z" fill="#FFFDF9"/>
  <path d="M95.236 36.707l1.713 5.812a26.073 26.073 0 0021.352 18.44l14.989 2.124-14.989 2.123a26.073 26.073 0 00-21.352 18.441l-1.713 5.812-1.714-5.812a26.073 26.073 0 00-21.352-18.44l-14.989-2.124 14.99-2.124a26.073 26.073 0 0021.35-18.44l1.715-5.812z" fill="#FFFDF9"/>
  <path d="M95.237 36.707l1.027 5.025a26.072 26.072 0 0020.324 20.324l5.025 1.027-5.025 1.027a26.072 26.072 0 00-20.324 20.324l-1.027 5.025-1.027-5.025A26.073 26.073 0 0073.886 64.11l-5.026-1.027 5.026-1.027A26.073 26.073 0 0094.21 41.732l1.027-5.025z" fill="#3480F1"/>
</svg>
