<svg fill="none" xmlns="http://www.w3.org/2000/svg" viewBox="0 0 29 31">
  <path d="M6.373 23.508c-.562-.75-1.125-2.063-2.25-3.75-.562-.938-2.25-2.813-2.812-3.563-.375-.75-.375-1.125-.188-1.875.188-1.125 1.313-2.062 2.625-2.062.938 0 1.875.75 2.625 1.312.375.375.938 1.125 1.313 1.5s.375.563.75.938c.375.562.562.937.375.187-.188-.937-.375-2.437-.75-3.937-.188-1.125-.375-1.313-.563-2.063-.187-.937-.375-1.5-.562-2.437-.188-.563-.375-2.063-.563-2.813-.187-.937-.187-2.625.563-3.375.562-.562 1.687-.75 2.437-.375.938.563 1.5 1.875 1.688 2.438.375.937.75 2.25.937 3.75.375 1.875.938 4.687.938 5.25 0-.75-.188-2.063 0-2.813.187-.562.562-1.312 1.312-1.5.563-.187 1.125-.187 1.688-.187a4.083 4.083 0 011.5.937c.75 1.125.75 3.563.75 3.375.187-.75.187-2.25.562-3 .188-.375.938-.75 1.313-.937a3.195 3.195 0 011.875 0c.375 0 1.125.562 1.312.937.375.563.563 2.438.75 3.188 0 .187.188-.75.563-1.313.75-1.125 3.375-1.5 3.562 1.125v4.313c0 .75-.187 2.437-.375 3.187-.187.563-.75 1.875-1.312 2.625 0 0-2.063 2.25-2.25 3.375-.188 1.125-.188 1.125-.188 1.875s.188 1.688.188 1.688-1.5.187-2.25 0c-.75-.188-1.688-1.5-1.875-2.063-.375-.562-.938-.562-1.313 0-.375.75-1.312 2.063-2.062 2.063-1.313.187-3.938 0-5.813 0 0 0 .375-1.875-.375-2.625L8.436 24.82l-2.063-1.312z" fill="#fff"/>
  <path d="M6.373 23.508c-.562-.75-1.125-2.063-2.25-3.75-.562-.938-2.25-2.813-2.812-3.563-.375-.75-.375-1.125-.188-1.875.188-1.125 1.313-2.062 2.625-2.062.938 0 1.875.75 2.625 1.312.375.375.938 1.125 1.313 1.5s.375.563.75.938c.375.562.562.937.375.187-.188-.937-.375-2.437-.75-3.937-.188-1.125-.375-1.313-.563-2.063-.187-.937-.375-1.5-.562-2.437-.188-.563-.375-2.063-.563-2.813-.187-.937-.187-2.625.563-3.375.562-.562 1.687-.75 2.437-.375.938.563 1.5 1.875 1.688 2.438.375.937.75 2.25.937 3.75.375 1.875.938 4.687.938 5.25 0-.75-.188-2.063 0-2.813.187-.562.562-1.312 1.312-1.5.563-.187 1.125-.187 1.688-.187a4.083 4.083 0 011.5.937c.75 1.125.75 3.563.75 3.375.187-.75.187-2.25.562-3 .188-.375.938-.75 1.313-.937a3.195 3.195 0 011.875 0c.375 0 1.125.562 1.312.937.375.563.563 2.438.75 3.188 0 .187.188-.75.563-1.313.75-1.125 3.375-1.5 3.562 1.125v4.313c0 .75-.187 2.437-.375 3.187-.187.563-.75 1.875-1.312 2.625 0 0-2.063 2.25-2.25 3.375-.188 1.125-.188 1.125-.188 1.875s.188 1.688.188 1.688-1.5.187-2.25 0c-.75-.188-1.688-1.5-1.875-2.063-.375-.562-.938-.562-1.313 0-.375.75-1.312 2.063-2.062 2.063-1.313.187-3.938 0-5.813 0 0 0 .375-1.875-.375-2.625L8.436 24.82l-2.063-1.312z" stroke="#000" stroke-width="1.25" stroke-linecap="round" stroke-linejoin="round"/>
  <path d="M21.938 24.07v-6.375M18.19 24.07l-.188-6.375m-3.564 0v6.375" stroke="#000" stroke-width="1.25" stroke-linecap="round"/>
</svg>
