<svg fill="none" xmlns="http://www.w3.org/2000/svg" viewBox="0 0 213 242">
  <path fill-rule="evenodd" clip-rule="evenodd" d="M174.151 86.127c-2.844.327-5.181 2.61-5.182 5.472-.01 24.755-20.086 44.814-44.84 44.804-.551 0-1.028.383-1.147.921l-7.648 34.766a115.138 115.138 0 00-2.688 24.687c-.005 12.652 10.12 22.838 22.706 24.134 18.645 1.92 31.203 5.518 31.202 9.636-.003 6.123-27.782 11.076-62.048 11.062-34.265-.014-62.041-4.989-62.038-11.112.001-4.153 12.778-7.768 31.69-9.66 12.578-1.258 22.711-11.425 22.716-24.066a115.16 115.16 0 00-2.668-24.69l-7.62-34.771a1.173 1.173 0 00-1.146-.922c-24.754-.01-44.814-20.086-44.804-44.84l.001-2.077c0-1.793-1.398-3.262-3.175-3.502A43.171 43.171 0 0140.635.097a.04.04 0 00.038-.04.04.04 0 01.04-.04l128.292.051h.001a43.168 43.168 0 0141.103 29.31 43.178 43.178 0 01-4.197 36.614 43.17 43.17 0 01-31.761 20.135zm-5.155-63.29c.003-6.598 5.503-12.165 11.673-9.828a32.326 32.326 0 0120.669 33.91 32.313 32.313 0 01-14.544 23.452 32.317 32.317 0 01-13.262 4.904c-2.507.337-4.556-1.754-4.555-4.283l.019-48.155zM31.829 12.95c4.581-1.73 8.838 2.21 8.836 7.107l-.022 53.615c0 .935-.8 1.675-1.726 1.55a32.323 32.323 0 01-7.088-62.272z" fill="#FFFDF9"/>
  <path d="M106.177 40.924l1.91 6.48a29.07 29.07 0 0023.804 20.559l16.712 2.367-16.712 2.368a29.07 29.07 0 00-23.804 20.559l-1.91 6.48-1.911-6.48a29.07 29.07 0 00-23.804-20.56L63.75 70.33l16.712-2.367a29.07 29.07 0 0023.804-20.56l1.911-6.48z" fill="#FFFDF9"/>
  <path d="M106.178 40.924l1.145 5.603a29.068 29.068 0 0022.659 22.658l5.602 1.145-5.602 1.146a29.069 29.069 0 00-22.659 22.658l-1.145 5.603-1.145-5.603a29.069 29.069 0 00-22.659-22.658l-5.602-1.145 5.602-1.146a29.068 29.068 0 0022.659-22.658l1.145-5.603z" fill="#3480F1"/>
</svg>
