<svg fill="none" xmlns="http://www.w3.org/2000/svg" viewBox="0 0 45 45">
  <g clip-path="url(#21Q4n_8EA0Pza)" fill="#14161F">
    <path d="M0 14.35v16.8a9.333 9.333 0 009.333 9.333h22.4a9.336 9.336 0 008.557-5.6H30.8a8.4 8.4 0 01-8.4-8.4v-7.466a8.4 8.4 0 018.4-8.4h9.49a9.336 9.336 0 00-8.557-5.6h-22.4A9.333 9.333 0 000 14.35z"/>
    <path fill-rule="evenodd" clip-rule="evenodd" d="M26.133 19.017v7.466A4.667 4.667 0 0030.8 31.15h9.333a4.667 4.667 0 004.667-4.667v-7.466a4.667 4.667 0 00-4.667-4.667H30.8a4.667 4.667 0 00-4.667 4.667zm9.334 3.733a2.8 2.8 0 11-5.6 0 2.8 2.8 0 015.6 0z"/>
  </g>
  <defs>
    <clipPath id="21Q4n_8EA0Pza">
      <path fill="#fff" d="M0 0h44.8v44.8H0z"/>
    </clipPath>
  </defs>
</svg>
