<svg fill="none" xmlns="http://www.w3.org/2000/svg" viewBox="0 0 1241 48">
  <path fill-rule="evenodd" clip-rule="evenodd" d="M9.273 31.51c7.68 7.732 17.279 10.605 21.439 6.417 3.171-3.193 2.266-9.568-1.745-15.843a142.57 142.57 0 002.546-4.39 2.377 2.377 0 00-1.947-3.54 138.82 138.82 0 00-7.833-.22H21.7C14.58 8.055 6.594 6.205 2.9 9.925c-4.16 4.188-1.307 13.852 6.374 21.584zm12.426-17.577c-2.617.001-5.217.075-7.798.221a2.377 2.377 0 00-1.948 3.54 142.758 142.758 0 007.82 12.485 2.389 2.389 0 003.921 0 142.71 142.71 0 005.273-8.095 34.808 34.808 0 00-4.629-5.741 36.256 36.256 0 00-2.639-2.41z" fill="#14161F"/>
  <path d="M46.672 33.493V17.706h-6.514v-3.533H57.16v3.533h-6.486v15.787h-4.002zm21.566.304c-1.436 0-2.77-.249-4.002-.745a10.495 10.495 0 01-3.257-2.126 10.5 10.5 0 01-2.18-3.174c-.516-1.214-.773-2.52-.773-3.919 0-1.398.257-2.695.772-3.891a10.066 10.066 0 012.18-3.174 9.88 9.88 0 013.258-2.126c1.233-.515 2.566-.772 4.002-.772 1.435 0 2.769.257 4.002.772a9.515 9.515 0 013.256 2.126 9.497 9.497 0 012.18 3.174c.516 1.196.774 2.493.774 3.891 0 1.399-.258 2.705-.773 3.92a9.88 9.88 0 01-2.18 3.173c-.92.902-2.006 1.61-3.257 2.126-1.233.496-2.567.745-4.002.745zm0-3.671c.883 0 1.692-.156 2.428-.47a6.446 6.446 0 001.932-1.324 6.218 6.218 0 001.298-2.015 6.57 6.57 0 00.469-2.484c0-.901-.157-1.73-.47-2.484a5.907 5.907 0 00-1.297-1.987 5.839 5.839 0 00-1.932-1.325c-.736-.331-1.545-.497-2.428-.497-.865 0-1.665.166-2.401.497a5.839 5.839 0 00-1.933 1.325 5.907 5.907 0 00-1.297 1.987 6.35 6.35 0 00-.469 2.457c0 .901.157 1.738.47 2.511a6.218 6.218 0 001.297 2.015 6.446 6.446 0 001.931 1.325 6.078 6.078 0 002.402.469zm13.537 3.367v-19.32h9.687c1.27 0 2.383.258 3.34.773a5.742 5.742 0 012.29 2.153c.553.901.829 1.95.829 3.146 0 1.141-.276 2.162-.828 3.064a5.81 5.81 0 01-2.291 2.125c-.975.515-2.089.773-3.34.773h-5.685v7.286h-4.002zm4.002-10.598h5.244c.864 0 1.555-.24 2.07-.718.533-.478.8-1.113.8-1.904 0-.81-.267-1.454-.8-1.932-.515-.479-1.206-.718-2.07-.718h-5.244v5.272z" fill="#14161F"/>
  <g clip-path="url(#nZjsOYi5r7ewa)">
    <path d="M433.871 31V17.91h5.012c.946 0 1.732.148 2.358.447.631.294 1.102.696 1.413 1.208.315.511.473 1.09.473 1.738 0 .533-.102.989-.307 1.368-.204.375-.479.68-.824.914a3.499 3.499 0 01-1.157.505v.128c.464.026.909.168 1.336.428.43.256.781.618 1.054 1.087s.409 1.035.409 1.7c0 .678-.164 1.287-.492 1.828-.328.537-.822.961-1.483 1.272-.66.311-1.491.467-2.493.467h-5.299zm2.372-1.982h2.55c.861 0 1.481-.164 1.86-.492.384-.332.576-.758.576-1.278a1.956 1.956 0 00-1.106-1.79c-.354-.183-.776-.275-1.266-.275h-2.614v3.835zm0-5.541h2.346c.409 0 .777-.075 1.105-.224.329-.154.586-.369.774-.646.192-.281.288-.613.288-.997 0-.507-.179-.925-.537-1.253-.354-.328-.88-.492-1.579-.492h-2.397v3.612zm15.614 3.394v-5.69h2.314V31h-2.244v-1.745h-.102c-.222.55-.586 1-1.093 1.349-.503.35-1.123.524-1.86.524-.644 0-1.213-.143-1.707-.428-.49-.29-.873-.71-1.15-1.26-.277-.554-.416-1.223-.416-2.007v-6.251h2.314v5.893c0 .622.17 1.117.511 1.483.341.367.789.55 1.343.55.341 0 .671-.083.99-.25a2.02 2.02 0 00.787-.74c.208-.333.313-.749.313-1.247zM456.55 31v-9.818h2.314V31h-2.314zm1.164-11.212c-.367 0-.682-.121-.946-.364a1.172 1.172 0 01-.397-.889c0-.349.132-.645.397-.888.264-.247.579-.37.946-.37.37 0 .686.123.946.37.264.243.396.54.396.889 0 .345-.132.64-.396.888-.26.243-.576.364-.946.364zm5.844-1.879V31h-2.314V17.91h2.314zm6.022 13.264a3.717 3.717 0 01-2.071-.595c-.609-.396-1.09-.971-1.444-1.726-.354-.754-.531-1.67-.531-2.748 0-1.091.179-2.012.537-2.762.362-.754.85-1.323 1.464-1.706a3.764 3.764 0 012.052-.582c.575 0 1.048.098 1.419.294.371.192.665.424.882.697.217.268.386.522.505.76h.096V17.91h2.32V31h-2.275v-1.547h-.141a3.934 3.934 0 01-.518.76c-.226.265-.524.49-.895.678-.37.188-.837.282-1.4.282zm.646-1.899c.49 0 .908-.132 1.253-.396.345-.269.607-.642.786-1.119.179-.477.269-1.033.269-1.668s-.09-1.187-.269-1.656c-.175-.468-.435-.833-.78-1.093-.341-.26-.76-.39-1.259-.39-.516 0-.946.135-1.291.403-.345.269-.605.64-.78 1.112-.175.473-.262 1.015-.262 1.624 0 .613.087 1.161.262 1.643.179.477.441.854.786 1.131.35.273.778.41 1.285.41zM484.597 31l-3.695-13.09h2.551l2.358 9.62h.122l2.518-9.62h2.321l2.525 9.625h.115l2.358-9.626h2.551L494.626 31h-2.339l-2.621-9.185h-.102L486.936 31h-2.339zm15.266 0v-9.818h2.314V31h-2.314zm1.163-11.212a1.35 1.35 0 01-.946-.364 1.175 1.175 0 01-.396-.889c0-.349.132-.645.396-.888.264-.247.58-.37.946-.37.371 0 .686.123.946.37.264.243.396.54.396.889 0 .345-.132.64-.396.888-.26.243-.575.364-.946.364zm8.433 1.394v1.79h-5.644v-1.79h5.644zm-4.251-2.352h2.314v9.217c0 .311.047.55.141.716a.757.757 0 00.383.332c.158.06.333.09.524.09.145 0 .277-.011.397-.032.123-.022.217-.04.281-.058l.39 1.81a5.378 5.378 0 01-.531.14 4.34 4.34 0 01-.831.09 3.776 3.776 0 01-1.566-.263 2.441 2.441 0 01-1.106-.907c-.268-.41-.4-.921-.396-1.535v-9.6zm8.711 6.417V31h-2.314V17.91h2.263v4.94h.115c.23-.554.586-.99 1.067-1.31.486-.324 1.104-.486 1.854-.486.682 0 1.276.143 1.783.428a2.89 2.89 0 011.176 1.253c.282.55.422 1.221.422 2.014V31h-2.314v-5.893c0-.661-.17-1.174-.511-1.54-.337-.372-.81-.557-1.419-.557-.409 0-.776.09-1.099.268-.32.175-.571.429-.755.761-.179.332-.268.735-.268 1.208zm21.544-7.338h2.372v8.553c0 .937-.222 1.762-.665 2.473-.439.712-1.057 1.268-1.854 1.669-.797.396-1.728.594-2.793.594-1.07 0-2.003-.198-2.8-.594-.797-.4-1.415-.957-1.854-1.669-.438-.711-.658-1.536-.658-2.473v-8.553h2.372v8.355c0 .545.119 1.03.358 1.457.242.426.583.76 1.022 1.003.439.24.959.358 1.56.358.601 0 1.121-.119 1.56-.358a2.544 2.544 0 001.022-1.003c.239-.426.358-.912.358-1.457v-8.355zm12.607 5.868l-2.109.23a1.69 1.69 0 00-.314-.6 1.559 1.559 0 00-.588-.455c-.247-.115-.549-.172-.907-.172-.482 0-.887.104-1.215.313-.324.209-.484.48-.479.812-.005.285.1.518.313.697.217.178.575.326 1.074.44l1.675.359c.929.2 1.619.517 2.071.952.456.435.686 1.003.69 1.707a2.667 2.667 0 01-.543 1.636c-.354.469-.846.835-1.477 1.1-.631.264-1.355.396-2.173.396-1.202 0-2.169-.252-2.902-.755-.733-.507-1.17-1.212-1.311-2.115l2.257-.218c.102.444.319.778.652 1.004.332.226.765.339 1.297.339.55 0 .991-.113 1.323-.339.337-.226.505-.505.505-.837a.87.87 0 00-.326-.697c-.213-.183-.545-.324-.997-.422l-1.674-.352c-.942-.196-1.639-.526-2.091-.99-.451-.47-.675-1.061-.671-1.777-.004-.605.16-1.13.492-1.573.337-.447.804-.792 1.4-1.035.601-.247 1.294-.371 2.078-.371 1.15 0 2.056.245 2.716.735.665.49 1.076 1.153 1.234 1.988z" fill="#14161F"/>
    <path d="M560.5 22l4.5 5 4.5-5" stroke="#14161F" stroke-width="2" stroke-linecap="round" stroke-linejoin="round"/>
  </g>
  <g clip-path="url(#nZjsOYi5r7ewb)">
    <path d="M611.313 17.91V31h-2.371V17.91h2.371zm4.78 7.337V31h-2.314v-9.818h2.211v1.668h.115c.226-.55.586-.986 1.081-1.31.498-.324 1.114-.486 1.847-.486.678 0 1.268.145 1.771.435.507.29.899.71 1.176 1.259.281.55.42 1.216.415 2V31h-2.314v-5.893c0-.657-.17-1.17-.511-1.54-.337-.372-.803-.557-1.4-.557-.405 0-.765.09-1.08.268a1.862 1.862 0 00-.735.761c-.175.332-.262.735-.262 1.208zm17.073-4.065L629.669 31h-2.556l-3.497-9.818h2.467l2.257 7.293h.102l2.263-7.293h2.461zm5.614 10.01c-.985 0-1.835-.205-2.551-.614a4.163 4.163 0 01-1.643-1.751c-.383-.759-.575-1.652-.575-2.679 0-1.01.192-1.896.575-2.659a4.35 4.35 0 011.624-1.79c.695-.43 1.511-.645 2.448-.645.605 0 1.176.098 1.713.294.541.192 1.019.49 1.432.895.418.405.746.92.984 1.547.239.622.358 1.363.358 2.224v.71h-8.047v-1.56h5.829a2.492 2.492 0 00-.287-1.183 2.098 2.098 0 00-.786-.824c-.333-.2-.721-.3-1.164-.3-.473 0-.888.115-1.246.345a2.386 2.386 0 00-.838.895 2.57 2.57 0 00-.3 1.208v1.361c0 .571.104 1.061.313 1.47.209.405.501.716.876.934.375.213.814.32 1.317.32.336 0 .641-.048.914-.141a2.03 2.03 0 00.709-.429c.2-.187.352-.42.454-.696l2.161.242a3.38 3.38 0 01-.78 1.496c-.38.422-.865.75-1.458.985-.592.23-1.27.345-2.032.345zm14.083-7.415l-2.109.23a1.706 1.706 0 00-.314-.6 1.559 1.559 0 00-.588-.455c-.247-.115-.549-.172-.907-.172-.482 0-.887.104-1.215.313-.324.209-.484.48-.479.812-.005.285.1.518.313.697.217.178.575.326 1.074.44l1.674.359c.929.2 1.62.517 2.072.952.455.435.686 1.003.69 1.707a2.674 2.674 0 01-.543 1.636c-.354.469-.846.835-1.477 1.1-.631.264-1.355.396-2.173.396-1.202 0-2.169-.252-2.902-.755-.733-.507-1.17-1.212-1.311-2.115l2.257-.218c.102.444.319.778.652 1.004.332.226.765.339 1.297.339.55 0 .991-.113 1.323-.339.337-.226.505-.505.505-.837a.87.87 0 00-.326-.697c-.213-.183-.545-.324-.997-.422l-1.674-.352c-.942-.196-1.639-.526-2.091-.99-.451-.47-.675-1.061-.671-1.777-.004-.605.16-1.13.492-1.573.337-.447.804-.792 1.4-1.035.601-.247 1.294-.371 2.078-.371 1.15 0 2.056.245 2.716.735.665.49 1.076 1.153 1.234 1.988zm7.022-2.595v1.79h-5.645v-1.79h5.645zm-4.251-2.352h2.314v9.217c0 .311.047.55.14.716a.759.759 0 00.384.332c.158.06.332.09.524.09.145 0 .277-.011.396-.032.124-.022.218-.04.282-.058l.39 1.81a5.378 5.378 0 01-.531.14 4.34 4.34 0 01-.831.09c-.579.016-1.102-.071-1.566-.263a2.441 2.441 0 01-1.106-.907c-.268-.41-.4-.921-.396-1.535v-9.6zM661.82 31v-9.818h2.211v1.668h.115a2.608 2.608 0 011.017-1.317c.473-.32 1.037-.479 1.694-.479.664 0 1.225.162 1.681.486.46.32.784.756.971 1.31h.103c.217-.545.583-.98 1.099-1.304.52-.328 1.136-.492 1.847-.492.904 0 1.641.286 2.212.857.571.57.857 1.404.857 2.499V31h-2.321v-6.232c0-.61-.162-1.055-.486-1.336-.323-.286-.72-.428-1.188-.428-.559 0-.995.174-1.311.524-.311.345-.466.794-.466 1.348V31h-2.27v-6.328c0-.507-.153-.912-.46-1.215-.302-.302-.699-.453-1.189-.453-.332 0-.635.085-.907.255-.273.166-.49.403-.652.71a2.215 2.215 0 00-.243 1.06V31h-2.314zm20.501.192c-.985 0-1.835-.205-2.551-.614a4.163 4.163 0 01-1.643-1.751c-.383-.759-.575-1.652-.575-2.679 0-1.01.192-1.896.575-2.659a4.35 4.35 0 011.624-1.79c.695-.43 1.511-.645 2.448-.645.605 0 1.176.098 1.713.294.541.192 1.019.49 1.432.895.418.405.746.92.984 1.547.239.622.358 1.363.358 2.224v.71h-8.047v-1.56h5.829a2.492 2.492 0 00-.287-1.183 2.098 2.098 0 00-.786-.824c-.333-.2-.721-.3-1.164-.3-.473 0-.888.115-1.246.345a2.386 2.386 0 00-.838.895 2.57 2.57 0 00-.3 1.208v1.361c0 .571.104 1.061.313 1.47.209.405.501.716.876.934.375.213.814.32 1.317.32.336 0 .641-.048.914-.141a2.03 2.03 0 00.709-.429c.2-.187.352-.42.454-.696l2.161.242a3.38 3.38 0 01-.78 1.496c-.38.422-.865.75-1.458.985-.592.23-1.27.345-2.032.345zm8.637-5.945V31h-2.314v-9.818h2.212v1.668h.115c.226-.55.586-.986 1.08-1.31.499-.324 1.114-.486 1.847-.486.678 0 1.268.145 1.771.435.507.29.899.71 1.176 1.259.281.55.42 1.216.415 2V31h-2.313v-5.893c0-.657-.171-1.17-.512-1.54-.336-.372-.803-.557-1.4-.557-.404 0-.765.09-1.08.268a1.862 1.862 0 00-.735.761c-.175.332-.262.735-.262 1.208zm13.557-4.065v1.79h-5.644v-1.79h5.644zm-4.25-2.352h2.314v9.217c0 .311.047.55.14.716a.759.759 0 00.384.332c.157.06.332.09.524.09.145 0 .277-.011.396-.032.124-.022.218-.04.282-.058l.389 1.81c-.123.042-.3.089-.53.14a4.34 4.34 0 01-.831.09c-.58.016-1.102-.071-1.566-.263a2.436 2.436 0 01-1.106-.907c-.268-.41-.401-.921-.396-1.535v-9.6zm13.805 4.947l-2.109.23a1.69 1.69 0 00-.314-.6 1.559 1.559 0 00-.588-.455c-.247-.115-.549-.172-.907-.172-.482 0-.887.104-1.215.313-.324.209-.484.48-.479.812-.005.285.1.518.313.697.217.178.575.326 1.074.44l1.675.359c.929.2 1.619.517 2.071.952.456.435.686 1.003.69 1.707a2.667 2.667 0 01-.543 1.636c-.354.469-.846.835-1.477 1.1-.631.264-1.355.396-2.173.396-1.202 0-2.169-.252-2.902-.755-.733-.507-1.17-1.212-1.311-2.115l2.257-.218c.102.444.319.778.652 1.004.332.226.765.339 1.297.339.55 0 .991-.113 1.323-.339.337-.226.505-.505.505-.837a.87.87 0 00-.326-.697c-.213-.183-.545-.324-.997-.422l-1.674-.352c-.942-.196-1.639-.526-2.091-.99-.451-.47-.675-1.061-.671-1.777-.004-.605.16-1.13.492-1.573.337-.447.804-.792 1.4-1.035.601-.247 1.294-.371 2.078-.371 1.15 0 2.056.245 2.716.735.665.49 1.076 1.153 1.234 1.988z" fill="#14161F"/>
  </g>
  <g clip-path="url(#nZjsOYi5r7ewc)">
    <path d="M751.317 17.91V31h-2.372V17.91h2.372zm4.78 7.337V31h-2.314v-9.818h2.211v1.668h.115c.226-.55.586-.986 1.081-1.31.498-.324 1.114-.486 1.847-.486.677 0 1.268.145 1.771.435.507.29.899.71 1.176 1.259.281.55.419 1.216.415 2V31h-2.314v-5.893c0-.657-.17-1.17-.511-1.54-.337-.372-.803-.557-1.4-.557-.405 0-.765.09-1.08.268a1.862 1.862 0 00-.735.761c-.175.332-.262.735-.262 1.208zm16.414-1.47l-2.109.23a1.703 1.703 0 00-.313-.6 1.559 1.559 0 00-.588-.455c-.247-.115-.55-.172-.908-.172-.481 0-.886.104-1.214.313-.324.209-.484.48-.48.812a.85.85 0 00.313.697c.218.178.576.326 1.074.44l1.675.359c.929.2 1.619.517 2.071.952.456.435.686 1.003.69 1.707a2.667 2.667 0 01-.543 1.636c-.354.469-.846.835-1.477 1.1-.63.264-1.355.396-2.173.396-1.202 0-2.169-.252-2.902-.755-.733-.507-1.17-1.212-1.31-2.115l2.256-.218c.102.444.32.778.652 1.004.333.226.765.339 1.298.339.549 0 .99-.113 1.323-.339.337-.226.505-.505.505-.837a.873.873 0 00-.326-.697c-.213-.183-.546-.324-.997-.422l-1.675-.352c-.942-.196-1.639-.526-2.09-.99-.452-.47-.676-1.061-.671-1.777-.005-.605.159-1.13.492-1.573.336-.447.803-.792 1.4-1.035.601-.247 1.293-.371 2.077-.371 1.151 0 2.056.245 2.717.735.664.49 1.076 1.153 1.233 1.988zM774.63 31v-9.818h2.314V31h-2.314zm1.164-11.212c-.367 0-.682-.121-.946-.364a1.172 1.172 0 01-.397-.889c0-.349.132-.645.397-.888.264-.247.579-.37.946-.37.37 0 .686.123.946.37.264.243.396.54.396.889 0 .345-.132.64-.396.888-.26.243-.576.364-.946.364zm7.8 15.098c-.831 0-1.545-.113-2.142-.338-.596-.222-1.076-.52-1.438-.895a3.093 3.093 0 01-.754-1.247l2.084-.505c.093.192.23.382.409.57.179.19.419.349.722.472.307.128.692.192 1.157.192.656 0 1.199-.16 1.63-.48.43-.315.645-.835.645-1.56v-1.86h-.115a3.278 3.278 0 01-.524.736 2.683 2.683 0 01-.901.633c-.371.17-.837.255-1.4.255a4.037 4.037 0 01-2.052-.53c-.609-.358-1.095-.89-1.457-1.598-.358-.712-.537-1.602-.537-2.672 0-1.078.179-1.988.537-2.73.362-.745.85-1.31 1.464-1.693a3.759 3.759 0 012.052-.582c.575 0 1.048.098 1.419.294.375.192.673.424.894.697.222.268.39.522.505.76h.128v-1.623h2.282v9.978c0 .84-.2 1.534-.601 2.084-.4.55-.948.96-1.642 1.233-.695.273-1.483.41-2.365.41zm.019-5.842c.49 0 .907-.12 1.253-.358.345-.239.607-.582.786-1.029.179-.448.268-.984.268-1.61 0-.619-.089-1.16-.268-1.624-.175-.465-.435-.825-.78-1.08-.341-.26-.761-.39-1.259-.39-.516 0-.946.134-1.291.402-.346.269-.606.637-.78 1.106-.175.464-.262.993-.262 1.585 0 .601.087 1.127.262 1.579.179.447.441.797.786 1.048.349.248.778.371 1.285.371zm9.275-3.797V31h-2.314V17.91h2.262v4.94h.116c.23-.554.585-.99 1.067-1.31.486-.324 1.104-.486 1.854-.486.682 0 1.276.143 1.783.428a2.89 2.89 0 011.176 1.253c.281.55.422 1.221.422 2.014V31h-2.314v-5.893c0-.661-.17-1.174-.511-1.54-.337-.372-.81-.557-1.419-.557-.409 0-.776.09-1.1.268a1.88 1.88 0 00-.754.761c-.179.332-.268.735-.268 1.208zm13.627-4.065v1.79h-5.644v-1.79h5.644zm-4.25-2.352h2.314v9.217c0 .311.047.55.14.716a.759.759 0 00.384.332c.157.06.332.09.524.09.145 0 .277-.011.396-.032.124-.022.218-.04.282-.058l.389 1.81c-.123.042-.3.089-.53.14a4.34 4.34 0 01-.831.09c-.58.016-1.102-.071-1.566-.263a2.436 2.436 0 01-1.106-.907c-.268-.41-.401-.921-.396-1.535v-9.6zm13.805 4.947l-2.109.23a1.69 1.69 0 00-.314-.6 1.559 1.559 0 00-.588-.455c-.247-.115-.549-.172-.907-.172-.482 0-.887.104-1.215.313-.324.209-.484.48-.479.812-.005.285.1.518.313.697.217.178.575.326 1.074.44l1.675.359c.929.2 1.619.517 2.071.952.456.435.686 1.003.69 1.707a2.667 2.667 0 01-.543 1.636c-.354.469-.846.835-1.477 1.1-.631.264-1.355.396-2.173.396-1.202 0-2.169-.252-2.902-.755-.733-.507-1.17-1.212-1.311-2.115l2.257-.218c.102.444.319.778.652 1.004.332.226.765.339 1.297.339.55 0 .991-.113 1.323-.339.337-.226.505-.505.505-.837a.87.87 0 00-.326-.697c-.213-.183-.545-.324-.997-.422l-1.674-.352c-.942-.196-1.639-.526-2.091-.99-.451-.47-.675-1.061-.671-1.777-.004-.605.16-1.13.492-1.573.337-.447.804-.792 1.4-1.035.601-.247 1.294-.371 2.078-.371 1.15 0 2.056.245 2.716.735.665.49 1.076 1.153 1.234 1.988z" fill="#14161F"/>
  </g>
  <g clip-path="url(#nZjsOYi5r7ewd)">
    <path d="M852.578 31h-2.531l4.608-13.09h2.928L862.198 31h-2.531l-3.497-10.406h-.102L852.578 31zm.083-5.133h6.903v1.905h-6.903v-1.905zM863.922 31V17.91h2.314v4.895h.096c.119-.238.287-.492.505-.76.217-.273.511-.505.882-.697.371-.196.844-.294 1.419-.294.758 0 1.442.194 2.052.582.613.383 1.099.952 1.457 1.706.362.75.544 1.67.544 2.762 0 1.078-.177 1.994-.531 2.748-.354.755-.835 1.33-1.445 1.726a3.715 3.715 0 01-2.071.595c-.562 0-1.029-.094-1.4-.282a2.842 2.842 0 01-.894-.677 4.333 4.333 0 01-.518-.76h-.134V31h-2.276zm2.269-4.91c0 .636.09 1.192.269 1.67.183.476.445.85.786 1.118.345.264.763.396 1.253.396.511 0 .939-.136 1.285-.409.345-.277.605-.654.779-1.131.179-.482.269-1.03.269-1.643 0-.61-.088-1.15-.262-1.624-.175-.473-.435-.843-.78-1.112-.345-.268-.776-.403-1.291-.403-.495 0-.914.13-1.259.39-.346.26-.608.625-.787 1.093-.174.47-.262 1.021-.262 1.656zm13.249 5.102c-.958 0-1.789-.211-2.493-.633a4.298 4.298 0 01-1.636-1.77c-.383-.76-.575-1.646-.575-2.66 0-1.014.192-1.902.575-2.665a4.29 4.29 0 011.636-1.777c.704-.422 1.535-.633 2.493-.633.959 0 1.79.21 2.493.633a4.244 4.244 0 011.63 1.777c.388.763.582 1.651.582 2.665s-.194 1.9-.582 2.66a4.252 4.252 0 01-1.63 1.77c-.703.422-1.534.633-2.493.633zm.013-1.854c.52 0 .955-.143 1.304-.428.35-.29.609-.678.78-1.164a4.763 4.763 0 00.262-1.623c0-.601-.087-1.144-.262-1.63-.171-.49-.43-.88-.78-1.17-.349-.29-.784-.434-1.304-.434-.533 0-.976.144-1.329.434-.35.29-.612.68-.787 1.17a4.912 4.912 0 00-.255 1.63c0 .596.085 1.138.255 1.623.175.486.437.874.787 1.164.353.285.796.428 1.329.428zm12.914-2.467v-5.69h2.314V31h-2.244v-1.745h-.102c-.222.55-.586 1-1.093 1.349-.503.35-1.123.524-1.86.524-.644 0-1.213-.143-1.707-.428a2.98 2.98 0 01-1.151-1.26c-.277-.554-.415-1.223-.415-2.007v-6.251h2.314v5.893c0 .622.17 1.117.511 1.483.341.367.788.55 1.342.55.341 0 .672-.083.991-.25a2.01 2.01 0 00.786-.74c.209-.333.314-.749.314-1.247zm9.596-5.69v1.79h-5.644v-1.79h5.644zm-4.251-2.352h2.314v9.218c0 .311.047.55.141.716a.757.757 0 00.383.332c.158.06.332.09.524.09.145 0 .277-.011.397-.032.123-.022.217-.04.281-.058l.39 1.81a5.378 5.378 0 01-.531.14 4.34 4.34 0 01-.831.09 3.776 3.776 0 01-1.566-.263 2.441 2.441 0 01-1.106-.907c-.268-.41-.4-.921-.396-1.535v-9.6zm10.178 1.068v-1.988h10.444v1.988h-4.046V31h-2.352V19.897h-4.046zm23.575 4.558c0 1.41-.264 2.618-.792 3.624-.525 1.001-1.24 1.768-2.148 2.301-.904.533-1.928.799-3.075.799-1.146 0-2.173-.266-3.081-.799-.903-.537-1.619-1.306-2.147-2.308-.525-1.005-.787-2.211-.787-3.617 0-1.411.262-2.617.787-3.618.528-1.006 1.244-1.775 2.147-2.308.908-.533 1.935-.799 3.081-.799 1.147 0 2.171.266 3.075.8.908.532 1.623 1.301 2.148 2.307.528 1.001.792 2.207.792 3.617zm-2.384 0c0-.993-.156-1.83-.467-2.512-.306-.687-.733-1.204-1.278-1.554-.546-.354-1.174-.53-1.886-.53-.711 0-1.34.176-1.885.53-.546.35-.974.867-1.285 1.553-.307.682-.46 1.52-.46 2.512 0 .993.153 1.833.46 2.519.311.682.739 1.2 1.285 1.553.545.35 1.174.524 1.885.524.712 0 1.34-.174 1.886-.524.545-.353.972-.871 1.278-1.553.311-.686.467-1.526.467-2.518zM933.707 31V17.91h4.909c1.006 0 1.85.187 2.532.562a3.75 3.75 0 011.553 1.546c.354.652.53 1.394.53 2.225 0 .84-.176 1.585-.53 2.237a3.787 3.787 0 01-1.566 1.54c-.691.371-1.541.557-2.551.557h-3.253v-1.95h2.934c.588 0 1.069-.102 1.444-.307.375-.204.652-.486.831-.843a2.66 2.66 0 00.275-1.234c0-.465-.091-.874-.275-1.227a1.867 1.867 0 00-.837-.825c-.375-.2-.859-.3-1.451-.3h-2.173V31h-2.372z" fill="#14161F"/>
  </g>
  <g clip-path="url(#nZjsOYi5r7ewe)">
    <path d="M988.696 22.326h-2.391a2.975 2.975 0 00-.377-1.042 2.793 2.793 0 00-1.617-1.26 3.64 3.64 0 00-1.119-.165c-.712 0-1.342.179-1.892.537-.55.353-.98.873-1.291 1.56-.311.681-.467 1.514-.467 2.498 0 1.002.156 1.846.467 2.532.315.682.746 1.197 1.291 1.547.55.345 1.178.517 1.886.517.392 0 .758-.05 1.099-.153.345-.106.654-.262.927-.467a2.853 2.853 0 001.093-1.777l2.391.013a5.165 5.165 0 01-.582 1.752 5.167 5.167 0 01-1.157 1.444 5.324 5.324 0 01-1.675.972c-.639.23-1.348.345-2.128.345-1.151 0-2.178-.266-3.081-.799-.904-.533-1.615-1.302-2.135-2.308-.52-1.005-.78-2.211-.78-3.617 0-1.411.262-2.617.786-3.618.524-1.006 1.238-1.775 2.142-2.308.903-.533 1.926-.799 3.068-.799a6.51 6.51 0 012.032.307 5.203 5.203 0 011.675.901c.49.392.893.874 1.208 1.445.32.567.529 1.214.627 1.943zm4.894 8.872c-.622 0-1.182-.11-1.681-.332a2.747 2.747 0 01-1.176-.997c-.285-.44-.428-.98-.428-1.624 0-.554.102-1.012.307-1.374.204-.362.483-.652.837-.87a4.229 4.229 0 011.195-.492c.448-.115.91-.198 1.387-.25a51.501 51.501 0 001.4-.159c.358-.051.618-.128.78-.23.166-.107.249-.27.249-.492v-.038c0-.482-.142-.855-.428-1.12-.285-.263-.697-.395-1.234-.395-.566 0-1.016.123-1.348.37-.328.247-.55.54-.665.876l-2.161-.307c.171-.596.452-1.095.844-1.495a3.674 3.674 0 011.438-.908 5.506 5.506 0 011.88-.307 6.1 6.1 0 011.412.166c.469.111.897.294 1.285.55.388.251.699.594.933 1.029.239.435.358.978.358 1.63V31h-2.224v-1.349h-.077a2.81 2.81 0 01-.594.767 2.863 2.863 0 01-.953.57c-.379.14-.824.21-1.336.21zm.601-1.7c.465 0 .867-.092 1.208-.275.341-.188.603-.435.787-.741.187-.307.281-.642.281-1.004v-1.157c-.073.06-.196.115-.371.166-.17.051-.362.096-.575.134-.213.039-.424.073-.633.103l-.543.076a4.038 4.038 0 00-.927.23 1.542 1.542 0 00-.646.448c-.157.188-.236.43-.236.729 0 .426.155.747.466.965.311.217.708.326 1.189.326zM1001.1 31v-9.818h2.24v1.636h.11c.18-.567.48-1.003.92-1.31.44-.311.94-.467 1.5-.467.13 0 .27.007.43.02.16.008.29.023.4.044v2.129c-.1-.034-.25-.064-.47-.09-.2-.03-.41-.045-.6-.045-.43 0-.8.092-1.14.275-.33.18-.6.429-.79.748-.19.32-.29.688-.29 1.106V31h-2.31zm11.08.192c-.98 0-1.83-.205-2.55-.614a4.138 4.138 0 01-1.64-1.751c-.39-.759-.58-1.652-.58-2.679 0-1.01.19-1.896.58-2.659a4.32 4.32 0 011.62-1.79c.7-.43 1.51-.645 2.45-.645.6 0 1.17.098 1.71.294.54.192 1.02.49 1.43.895.42.405.75.92.99 1.547.24.622.36 1.363.36 2.224v.71h-8.05v-1.56h5.83c-.01-.443-.1-.837-.29-1.183a2.094 2.094 0 00-.79-.824c-.33-.2-.72-.3-1.16-.3-.47 0-.89.115-1.25.345a2.479 2.479 0 00-1.13 2.103v1.361c0 .571.1 1.061.31 1.47.21.405.5.716.88.934.37.213.81.32 1.31.32.34 0 .64-.048.92-.141.27-.098.51-.241.71-.429.2-.187.35-.42.45-.696l2.16.242c-.14.572-.4 1.07-.78 1.496-.38.422-.86.75-1.46.985-.59.23-1.27.345-2.03.345zm10.67 0c-.98 0-1.83-.205-2.55-.614a4.138 4.138 0 01-1.64-1.751c-.39-.759-.58-1.652-.58-2.679 0-1.01.19-1.896.58-2.659a4.32 4.32 0 011.62-1.79c.69-.43 1.51-.645 2.45-.645.6 0 1.17.098 1.71.294.54.192 1.02.49 1.43.895.42.405.75.92.99 1.547.24.622.36 1.363.36 2.224v.71h-8.05v-1.56h5.83c-.01-.443-.1-.837-.29-1.183a2.094 2.094 0 00-.79-.824c-.33-.2-.72-.3-1.16-.3-.47 0-.89.115-1.25.345a2.479 2.479 0 00-1.13 2.103v1.361c0 .571.1 1.061.31 1.47.21.405.5.716.88.934.37.213.81.32 1.31.32.34 0 .64-.048.92-.141.27-.098.51-.241.71-.429.2-.187.35-.42.45-.696l2.16.242c-.14.572-.4 1.07-.78 1.496-.38.422-.87.75-1.46.985-.59.23-1.27.345-2.03.345zm6.32-.192v-9.818h2.25v1.636h.1c.18-.567.48-1.003.92-1.31.44-.311.94-.467 1.5-.467.13 0 .27.007.43.02.16.008.3.023.4.044v2.129a2.42 2.42 0 00-.46-.09 4.4 4.4 0 00-.61-.045c-.42 0-.8.092-1.14.275-.33.18-.59.429-.79.748-.19.32-.28.688-.28 1.106V31h-2.32zm14.9-7.223l-2.11.23a1.679 1.679 0 00-.31-.6 1.582 1.582 0 00-.59-.455c-.25-.115-.55-.172-.91-.172-.48 0-.88.104-1.21.313-.33.209-.49.48-.48.812a.84.84 0 00.31.697c.22.178.58.326 1.07.44l1.68.359c.93.2 1.62.517 2.07.952.46.435.69 1.003.69 1.707 0 .618-.18 1.163-.54 1.636-.36.469-.85.835-1.48 1.1-.63.264-1.35.396-2.17.396-1.2 0-2.17-.252-2.9-.755-.74-.507-1.17-1.212-1.31-2.115l2.25-.218c.1.444.32.778.65 1.004.34.226.77.339 1.3.339.55 0 .99-.113 1.32-.339.34-.226.51-.505.51-.837a.868.868 0 00-.33-.697c-.21-.183-.54-.324-.99-.422l-1.68-.352c-.94-.196-1.64-.526-2.09-.99-.45-.47-.67-1.061-.67-1.777 0-.605.16-1.13.49-1.573.34-.447.81-.792 1.4-1.035.6-.247 1.3-.371 2.08-.371 1.15 0 2.06.245 2.72.735.66.49 1.07 1.153 1.23 1.988z" fill="#14161F"/>
  </g>
  <rect x="1077" width="164" height="48" rx="24" fill="#14161F"/>
  <path fill-rule="evenodd" clip-rule="evenodd" d="M1095.15 18.991c.27-3.065 2.51-5.344 5.57-5.681 1.61-.178 3.68-.31 6.28-.31 2.87 0 5.1.161 6.78.368 2.76.34 4.86 2.321 5.22 5.078.15 1.125.25 2.476.25 4.054 0 1.578-.1 2.929-.25 4.054-.36 2.757-2.46 4.738-5.22 5.078-1.68.207-3.91.368-6.78.368-.93 0-1.8-.017-2.6-.047-.24-.009-.47.066-.66.212-1.46 1.13-3.75 2.812-5.61 3.769a.613.613 0 01-.28.066c-.42 0-.72-.41-.6-.814l1.02-3.32c.15-.468-.08-.965-.48-1.241-1.49-1.015-2.47-2.654-2.64-4.616a39.494 39.494 0 01-.15-3.509c0-1.33.06-2.5.15-3.509zm17.17-1.293c-1.31-.737-3.56.643-5.19 3.115-1.64-2.472-3.89-3.852-5.2-3.114-1.4.787-1.19 3.686.46 6.476 1.37 2.325 3.32 3.84 4.74 3.825 1.41.015 3.36-1.5 4.73-3.825 1.65-2.79 1.86-5.69.46-6.477z" fill="#FFFDF9"/>
  <path d="M1138.25 22.326h-2.39a2.814 2.814 0 00-1.06-1.822 2.8 2.8 0 00-.93-.48 3.7 3.7 0 00-1.12-.165c-.71 0-1.34.179-1.89.537-.55.353-.98.873-1.29 1.56-.31.681-.47 1.514-.47 2.498 0 1.002.16 1.846.47 2.532.31.682.74 1.197 1.29 1.547.55.345 1.18.517 1.88.517.4 0 .76-.05 1.1-.153a2.925 2.925 0 001.63-1.221c.19-.298.32-.64.39-1.023l2.39.013a5.118 5.118 0 01-.58 1.752 5.196 5.196 0 01-1.15 1.444c-.48.414-1.04.737-1.68.972-.64.23-1.35.345-2.13.345-1.15 0-2.18-.266-3.08-.799-.9-.533-1.61-1.302-2.13-2.308-.52-1.005-.78-2.211-.78-3.617 0-1.411.26-2.617.78-3.618.53-1.006 1.24-1.775 2.14-2.308.91-.533 1.93-.799 3.07-.799.73 0 1.41.102 2.04.307.62.204 1.18.505 1.67.901.49.392.89.874 1.21 1.445.32.567.53 1.214.62 1.943zm6.36 8.866c-.96 0-1.79-.211-2.5-.633a4.252 4.252 0 01-1.63-1.77c-.39-.76-.58-1.646-.58-2.66 0-1.014.19-1.902.58-2.665.38-.763.93-1.355 1.63-1.777.71-.422 1.54-.633 2.5-.633s1.79.21 2.49.633c.7.422 1.25 1.014 1.63 1.777.39.763.58 1.651.58 2.665s-.19 1.9-.58 2.66a4.252 4.252 0 01-1.63 1.77c-.7.422-1.53.633-2.49.633zm.01-1.854c.52 0 .95-.143 1.3-.428.35-.29.61-.678.78-1.164.18-.485.27-1.026.27-1.623 0-.601-.09-1.144-.27-1.63-.17-.49-.43-.88-.78-1.17-.35-.29-.78-.434-1.3-.434-.53 0-.98.144-1.33.434-.35.29-.61.68-.79 1.17-.17.486-.25 1.029-.25 1.63 0 .596.08 1.138.25 1.623.18.486.44.874.79 1.164.35.285.8.428 1.33.428zm8.97-4.09V31h-2.32v-9.818h2.22v1.668h.11c.23-.55.59-.986 1.08-1.31.5-.324 1.12-.486 1.85-.486.68 0 1.27.145 1.77.435.51.29.9.71 1.18 1.259.28.55.42 1.216.41 2V31h-2.31v-5.893c0-.657-.17-1.17-.51-1.54-.34-.372-.81-.557-1.4-.557-.41 0-.77.09-1.08.268a1.83 1.83 0 00-.74.761c-.17.332-.26.735-.26 1.208zm13.56-4.066v1.79h-5.65v-1.79h5.65zm-4.25-2.352h2.31v9.217c0 .311.05.55.14.716.1.162.23.272.38.332.16.06.34.09.53.09.14 0 .27-.011.39-.032.13-.022.22-.04.29-.058l.39 1.81c-.13.042-.31.089-.54.14-.22.05-.5.08-.83.09-.58.016-1.1-.071-1.56-.263a2.406 2.406 0 01-1.11-.907c-.27-.41-.4-.921-.39-1.535v-9.6zm9.01 12.368c-.63 0-1.19-.11-1.68-.332-.5-.226-.89-.558-1.18-.997-.29-.44-.43-.98-.43-1.624 0-.554.1-1.012.31-1.374.2-.362.48-.652.84-.87.35-.217.75-.381 1.19-.492.45-.115.91-.198 1.39-.25.57-.059 1.04-.112 1.4-.159.36-.051.62-.128.78-.23.16-.107.25-.27.25-.492v-.038c0-.482-.15-.855-.43-1.12-.29-.263-.7-.395-1.24-.395-.56 0-1.01.123-1.34.37-.33.247-.55.54-.67.876l-2.16-.307c.17-.596.45-1.095.84-1.495.4-.405.88-.708 1.44-.908.57-.205 1.2-.307 1.88-.307a6 6 0 011.41.166c.47.111.9.294 1.29.55.39.251.7.594.93 1.029.24.435.36.978.36 1.63V31h-2.22v-1.349h-.08c-.14.273-.34.529-.59.767-.26.235-.57.424-.96.57-.38.14-.82.21-1.33.21zm.6-1.7c.46 0 .86-.092 1.21-.275.34-.188.6-.435.78-.741.19-.307.28-.642.28-1.004v-1.157c-.07.06-.19.115-.37.166-.17.051-.36.096-.57.134-.22.039-.43.073-.64.103-.2.03-.39.055-.54.076-.34.047-.65.124-.93.23-.27.107-.48.256-.64.448-.16.188-.24.43-.24.729 0 .426.16.747.47.965.31.217.71.326 1.19.326zm11.19 1.694c-.98 0-1.82-.215-2.52-.646a4.315 4.315 0 01-1.62-1.783c-.38-.763-.56-1.64-.56-2.634 0-.997.19-1.877.57-2.64a4.32 4.32 0 011.62-1.79c.71-.43 1.54-.645 2.5-.645.79 0 1.5.147 2.11.441.62.29 1.11.701 1.48 1.234.37.528.57 1.146.63 1.853h-2.22c-.09-.473-.3-.867-.63-1.182-.34-.32-.78-.48-1.34-.48-.47 0-.89.128-1.25.384-.36.251-.63.614-.83 1.087-.2.473-.3 1.04-.3 1.7 0 .669.1 1.244.3 1.726.19.477.47.846.82 1.106.36.255.78.383 1.26.383.34 0 .64-.064.91-.192.28-.132.5-.321.69-.569.18-.247.31-.547.37-.9h2.22c-.06.694-.26 1.31-.62 1.846-.35.533-.83.95-1.44 1.253-.61.299-1.33.448-2.15.448zm11.01-10.01v1.79h-5.65v-1.79h5.65zm-4.25-2.352h2.31v9.217c0 .311.05.55.14.716.1.162.23.272.39.332.15.06.33.09.52.09.15 0 .28-.011.4-.032.12-.022.21-.04.28-.058l.39 1.81a4.678 4.678 0 01-1.36.23c-.58.016-1.11-.071-1.57-.263a2.51 2.51 0 01-1.11-.907c-.26-.41-.4-.921-.39-1.535v-9.6zm19-.92h2.37v8.552c0 .937-.22 1.762-.66 2.473-.44.712-1.06 1.268-1.85 1.669-.8.396-1.73.594-2.8.594-1.07 0-2-.198-2.8-.594-.79-.4-1.41-.957-1.85-1.669-.44-.711-.66-1.536-.66-2.473v-8.553h2.37v8.355c0 .545.12 1.03.36 1.457.24.426.58.76 1.02 1.003.44.24.96.358 1.56.358.6 0 1.12-.119 1.56-.358.45-.242.79-.577 1.03-1.003.23-.426.35-.912.35-1.457v-8.355zm12.61 5.867l-2.11.23a1.679 1.679 0 00-.31-.6 1.582 1.582 0 00-.59-.455c-.25-.115-.55-.172-.91-.172-.48 0-.88.104-1.21.313-.33.209-.49.48-.48.812a.84.84 0 00.31.697c.22.178.58.326 1.07.44l1.68.359c.93.2 1.62.517 2.07.952.46.435.69 1.003.69 1.707 0 .618-.18 1.163-.54 1.636-.36.469-.85.835-1.48 1.1-.63.264-1.35.396-2.17.396-1.2 0-2.17-.252-2.9-.755-.74-.507-1.17-1.212-1.31-2.115l2.25-.218c.1.444.32.778.65 1.004.34.226.77.339 1.3.339.55 0 .99-.113 1.32-.339.34-.226.51-.505.51-.837a.868.868 0 00-.33-.697c-.21-.183-.54-.324-.99-.422l-1.68-.352c-.94-.196-1.64-.526-2.09-.99-.45-.47-.67-1.061-.67-1.777 0-.605.16-1.13.49-1.573.34-.447.81-.792 1.4-1.035.6-.247 1.3-.371 2.08-.371 1.15 0 2.06.245 2.72.735.66.49 1.07 1.153 1.23 1.988z" fill="#FFFDF9"/>
  <defs>
    <clipPath id="nZjsOYi5r7ewa">
      <path fill="#fff" transform="translate(432 12)" d="M0 0h143v24H0z"/>
    </clipPath>
    <clipPath id="nZjsOYi5r7ewb">
      <path fill="#fff" transform="translate(607 12)" d="M0 0h108v24H0z"/>
    </clipPath>
    <clipPath id="nZjsOYi5r7ewc">
      <path fill="#fff" transform="translate(747 12)" d="M0 0h70v24H0z"/>
    </clipPath>
    <clipPath id="nZjsOYi5r7ewd">
      <path fill="#fff" transform="translate(849 12)" d="M0 0h95v24H0z"/>
    </clipPath>
    <clipPath id="nZjsOYi5r7ewe">
      <path fill="#fff" transform="translate(976 12)" d="M0 0h69v24H0z"/>
    </clipPath>
  </defs>
</svg>
