<svg fill="none" xmlns="http://www.w3.org/2000/svg" viewBox="0 0 632 435">
  <path fill="#F7F5EF" d="M0 0h632v435H0z"/>
  <g filter="url(#VccdAmOj6TVWa)">
    <path d="M295.535 94.75c.783-2.725 1.174-4.087 1.42-4.714 4.769-12.19 21.99-12.27 26.873-.126.252.625.656 1.983 1.464 4.7 1.635 5.496 2.453 8.244 3.316 10.802A148.892 148.892 0 00423.4 199.32c2.566.84 5.321 1.632 10.832 3.215 2.724.783 4.086 1.174 4.713 1.42 12.19 4.769 12.271 21.99.126 26.874-.625.251-1.983.655-4.7 1.463-5.496 1.636-8.243 2.453-10.801 3.316a148.892 148.892 0 00-93.909 94.792c-.839 2.566-1.631 5.321-3.215 10.832-.783 2.724-1.174 4.086-1.42 4.714-4.769 12.189-21.99 12.27-26.873.125-.252-.624-.656-1.983-1.464-4.7-1.635-5.495-2.453-8.243-3.316-10.801a148.892 148.892 0 00-94.792-93.909c-2.566-.839-5.321-1.631-10.832-3.215-2.724-.783-4.086-1.174-4.713-1.419-12.19-4.77-12.271-21.991-.126-26.874.625-.251 1.983-.656 4.7-1.464 5.496-1.635 8.243-2.453 10.801-3.316a148.89 148.89 0 0093.909-94.792c.839-2.566 1.631-5.321 3.215-10.832z" fill="url(#VccdAmOj6TVWb)"/>
    <path d="M295.535 94.75c.783-2.725 1.174-4.087 1.42-4.714 4.769-12.19 21.99-12.27 26.873-.126.252.625.656 1.983 1.464 4.7 1.635 5.496 2.453 8.244 3.316 10.802A148.892 148.892 0 00423.4 199.32c2.566.84 5.321 1.632 10.832 3.215 2.724.783 4.086 1.174 4.713 1.42 12.19 4.769 12.271 21.99.126 26.874-.625.251-1.983.655-4.7 1.463-5.496 1.636-8.243 2.453-10.801 3.316a148.892 148.892 0 00-93.909 94.792c-.839 2.566-1.631 5.321-3.215 10.832-.783 2.724-1.174 4.086-1.42 4.714-4.769 12.189-21.99 12.27-26.873.125-.252-.624-.656-1.983-1.464-4.7-1.635-5.495-2.453-8.243-3.316-10.801a148.892 148.892 0 00-94.792-93.909c-2.566-.839-5.321-1.631-10.832-3.215-2.724-.783-4.086-1.174-4.713-1.419-12.19-4.77-12.271-21.991-.126-26.874.625-.251 1.983-.656 4.7-1.464 5.496-1.635 8.243-2.453 10.801-3.316a148.89 148.89 0 0093.909-94.792c.839-2.566 1.631-5.321 3.215-10.832z" fill="url(#VccdAmOj6TVWc)" fill-opacity=".2"/>
  </g>
  <path d="M483.256 94.75c-7.704 10.233-19.443 7.497-24.349 4.85 11.843 9.236 9.242 12.892 4.849 24.662 11.211-11.21 13.596-6.217 23.828-4.328-9.75-9.75-8.46-13.674-4.328-25.184zM188.551 302.253c-17.04 7.243-29.759-4.667-33.988-11.528 8.151 20.124 2.252 22.82-11.755 34.382 22.137-5.932 21.515 2.043 32.959 11.804-5.159-19.253-.708-23.235 12.784-34.658z" stroke="#1BA6A8" stroke-width="4" stroke-linejoin="round"/>
  <path d="M403.44 285.657c11.645 4.369 41.574 9.77 55.578 21.057m-67.456 22.37s6.956 4.417 17.69 21.459M155.065 190.991c-9.451-8.084-35.733-23.386-45.039-38.779m71.04 2.024s-5.028-6.528-9.293-26.212" stroke="#1BA6A8" stroke-width="4" stroke-linecap="round" stroke-linejoin="round"/>
  <defs>
    <radialGradient id="VccdAmOj6TVWc" cx="0" cy="0" r="1" gradientUnits="userSpaceOnUse" gradientTransform="rotate(62.046 -19.075 334.438) scale(104.957)">
      <stop stop-color="#fff"/>
      <stop offset="1" stop-color="#fff" stop-opacity="0"/>
    </radialGradient>
    <linearGradient id="VccdAmOj6TVWb" x1="275.972" y1="89.704" x2="346.009" y2="346.277" gradientUnits="userSpaceOnUse">
      <stop stop-color="#0EC498"/>
      <stop offset="1" stop-color="#0CDBA9"/>
    </linearGradient>
    <filter id="VccdAmOj6TVWa" x="171.129" y="74.053" width="283.799" height="287.875" filterUnits="userSpaceOnUse" color-interpolation-filters="sRGB">
      <feFlood flood-opacity="0" result="BackgroundImageFix"/>
      <feBlend in="SourceGraphic" in2="BackgroundImageFix" result="shape"/>
      <feColorMatrix in="SourceAlpha" values="0 0 0 0 0 0 0 0 0 0 0 0 0 0 0 0 0 0 127 0" result="hardAlpha"/>
      <feOffset/>
      <feGaussianBlur stdDeviation="6.794"/>
      <feComposite in2="hardAlpha" operator="arithmetic" k2="-1" k3="1"/>
      <feColorMatrix values="0 0 0 0 0.446667 0 0 0 0 1 0 0 0 0 0.866227 0 0 0 1 0"/>
      <feBlend in2="shape" result="effect1_innerShadow_119_4816"/>
      <feColorMatrix in="SourceAlpha" values="0 0 0 0 0 0 0 0 0 0 0 0 0 0 0 0 0 0 127 0" result="hardAlpha"/>
      <feOffset dx="6.794" dy="6.794"/>
      <feGaussianBlur stdDeviation="13.588"/>
      <feComposite in2="hardAlpha" operator="arithmetic" k2="-1" k3="1"/>
      <feColorMatrix values="0 0 0 0 0.756667 0 0 0 0 1 0 0 0 0 0.941172 0 0 0 1 0"/>
      <feBlend in2="effect1_innerShadow_119_4816" result="effect2_innerShadow_119_4816"/>
      <feColorMatrix in="SourceAlpha" values="0 0 0 0 0 0 0 0 0 0 0 0 0 0 0 0 0 0 127 0" result="hardAlpha"/>
      <feOffset dx="-2.718" dy="-6.794"/>
      <feGaussianBlur stdDeviation="6.115"/>
      <feComposite in2="hardAlpha" operator="arithmetic" k2="-1" k3="1"/>
      <feColorMatrix values="0 0 0 0 0 0 0 0 0 0.518333 0 0 0 0 0.393022 0 0 0 0.6 0"/>
      <feBlend in2="effect2_innerShadow_119_4816" result="effect3_innerShadow_119_4816"/>
    </filter>
  </defs>
</svg>
