<svg fill="none" xmlns="http://www.w3.org/2000/svg" viewBox="0 0 343 264">
  <g clip-path="url(#F0y90C3QkZFea)">
    <g filter="url(#F0y90C3QkZFeb)">
      <path d="M155.194 21.87c1.618-4.41 2.427-6.614 3.062-7.737 6.055-10.713 21.486-10.713 27.541 0 .635 1.123 1.444 3.328 3.062 7.736.657 1.792.986 2.688 1.344 3.42a15.817 15.817 0 0017.643 8.496c.795-.177 1.7-.478 3.511-1.081 4.455-1.484 6.683-2.226 7.957-2.43 12.151-1.946 21.772 10.12 17.172 21.533-.482 1.196-1.701 3.203-4.14 7.217-.99 1.631-1.486 2.447-1.835 3.182a15.818 15.818 0 004.358 19.092c.633.511 1.433 1.03 3.034 2.07 3.938 2.559 5.907 3.838 6.861 4.707 9.097 8.287 5.663 23.331-6.129 26.851-1.236.369-3.565.667-8.223 1.263-1.893.242-2.84.364-3.632.549a15.819 15.819 0 00-12.21 15.311c-.005.814.088 1.764.273 3.663.455 4.674.683 7.011.598 8.298-.807 12.28-14.71 18.975-24.814 11.95-1.059-.736-2.745-2.371-6.115-5.641-1.37-1.329-2.055-1.994-2.694-2.498a15.82 15.82 0 00-19.583 0c-.639.504-1.324 1.169-2.694 2.498-3.37 3.27-5.056 4.905-6.115 5.641-10.103 7.025-24.007.33-24.814-11.95-.084-1.287.143-3.624.598-8.298.185-1.899.278-2.849.273-3.663a15.819 15.819 0 00-12.209-15.311c-.793-.185-1.74-.307-3.633-.549-4.658-.596-6.987-.894-8.223-1.263-11.792-3.52-15.226-18.564-6.129-26.851.954-.869 2.923-2.148 6.861-4.707 1.601-1.04 2.401-1.559 3.034-2.07a15.818 15.818 0 004.358-19.092c-.349-.735-.844-1.551-1.835-3.182-2.438-4.014-3.657-6.02-4.14-7.217-4.6-11.414 5.021-23.479 17.172-21.533 1.274.204 3.502.946 7.957 2.43 1.811.603 2.717.904 3.511 1.08a15.82 15.82 0 0017.644-8.496c.357-.731.686-1.627 1.343-3.419z" fill="url(#F0y90C3QkZFec)"/>
      <path d="M155.194 21.87c1.618-4.41 2.427-6.614 3.062-7.737 6.055-10.713 21.486-10.713 27.541 0 .635 1.123 1.444 3.328 3.062 7.736.657 1.792.986 2.688 1.344 3.42a15.817 15.817 0 0017.643 8.496c.795-.177 1.7-.478 3.511-1.081 4.455-1.484 6.683-2.226 7.957-2.43 12.151-1.946 21.772 10.12 17.172 21.533-.482 1.196-1.701 3.203-4.14 7.217-.99 1.631-1.486 2.447-1.835 3.182a15.818 15.818 0 004.358 19.092c.633.511 1.433 1.03 3.034 2.07 3.938 2.559 5.907 3.838 6.861 4.707 9.097 8.287 5.663 23.331-6.129 26.851-1.236.369-3.565.667-8.223 1.263-1.893.242-2.84.364-3.632.549a15.819 15.819 0 00-12.21 15.311c-.005.814.088 1.764.273 3.663.455 4.674.683 7.011.598 8.298-.807 12.28-14.71 18.975-24.814 11.95-1.059-.736-2.745-2.371-6.115-5.641-1.37-1.329-2.055-1.994-2.694-2.498a15.82 15.82 0 00-19.583 0c-.639.504-1.324 1.169-2.694 2.498-3.37 3.27-5.056 4.905-6.115 5.641-10.103 7.025-24.007.33-24.814-11.95-.084-1.287.143-3.624.598-8.298.185-1.899.278-2.849.273-3.663a15.819 15.819 0 00-12.209-15.311c-.793-.185-1.74-.307-3.633-.549-4.658-.596-6.987-.894-8.223-1.263-11.792-3.52-15.226-18.564-6.129-26.851.954-.869 2.923-2.148 6.861-4.707 1.601-1.04 2.401-1.559 3.034-2.07a15.818 15.818 0 004.358-19.092c-.349-.735-.844-1.551-1.835-3.182-2.438-4.014-3.657-6.02-4.14-7.217-4.6-11.414 5.021-23.479 17.172-21.533 1.274.204 3.502.946 7.957 2.43 1.811.603 2.717.904 3.511 1.08a15.82 15.82 0 0017.644-8.496c.357-.731.686-1.627 1.343-3.419z" fill="url(#F0y90C3QkZFed)" fill-opacity=".2"/>
    </g>
    <g filter="url(#F0y90C3QkZFee)">
      <path fill-rule="evenodd" clip-rule="evenodd" d="M159.021 98.968c13.149 13.306 29.583 18.25 36.705 11.042 5.43-5.494 3.881-16.464-2.987-27.263a247.869 247.869 0 004.748-8.256c1.281-2.332-.279-5.182-2.924-5.341a236.421 236.421 0 00-14.209-.427h-.058c-12.191-10.114-25.861-13.298-32.187-6.897-7.122 7.208-2.237 23.836 10.912 37.142zm21.275-30.245c-4.75.001-9.468.145-14.15.427-2.645.159-4.205 3.01-2.924 5.341a245.932 245.932 0 0014.19 22.78 3.582 3.582 0 005.884 0 245.533 245.533 0 009.443-14.523c-2.142-3.367-4.8-6.717-7.925-9.88a62.073 62.073 0 00-4.518-4.145z" fill="url(#F0y90C3QkZFef)"/>
    </g>
    <g filter="url(#F0y90C3QkZFeg)">
      <path d="M91.749 125.342c7.04-4.286 10.561-6.429 13.154-7.098 10.119-2.613 20.338 3.874 22.282 14.142.497 2.631.057 6.729-.824 14.924-.262 2.434-.393 3.651-.368 4.809a18.078 18.078 0 004.638 11.718c.775.861 1.703 1.659 3.56 3.254 6.252 5.372 9.378 8.058 10.815 10.317 5.612 8.816 2.601 20.54-6.564 25.561-2.349 1.287-6.382 2.134-14.449 3.829-2.395.503-3.593.755-4.687 1.136a18.08 18.08 0 00-9.711 8.032c-.579 1.003-1.051 2.133-1.994 4.391-3.178 7.606-4.766 11.409-6.47 13.475-6.651 8.061-18.732 8.82-26.34 1.655-1.949-1.836-4.001-5.41-8.105-12.558-1.22-2.123-1.829-3.184-2.53-4.107a18.081 18.081 0 00-10.64-6.754c-1.132-.24-2.352-.34-4.792-.539-8.215-.672-12.323-1.007-14.814-1.99-9.722-3.834-14.177-15.089-9.713-24.538 1.143-2.422 3.908-5.478 9.438-11.59 1.642-1.815 2.463-2.723 3.125-3.674a18.08 18.08 0 003.135-12.207c-.121-1.152-.404-2.343-.968-4.724-1.9-8.021-2.85-12.031-2.686-14.704.643-10.431 9.97-18.146 20.336-16.821 2.657.339 6.418 2.025 13.94 5.395 2.233 1.001 3.35 1.501 4.46 1.836a18.08 18.08 0 0012.577-.79c1.058-.471 2.104-1.108 4.195-2.38z" fill="url(#F0y90C3QkZFeh)"/>
      <path d="M91.749 125.342c7.04-4.286 10.561-6.429 13.154-7.098 10.119-2.613 20.338 3.874 22.282 14.142.497 2.631.057 6.729-.824 14.924-.262 2.434-.393 3.651-.368 4.809a18.078 18.078 0 004.638 11.718c.775.861 1.703 1.659 3.56 3.254 6.252 5.372 9.378 8.058 10.815 10.317 5.612 8.816 2.601 20.54-6.564 25.561-2.349 1.287-6.382 2.134-14.449 3.829-2.395.503-3.593.755-4.687 1.136a18.08 18.08 0 00-9.711 8.032c-.579 1.003-1.051 2.133-1.994 4.391-3.178 7.606-4.766 11.409-6.47 13.475-6.651 8.061-18.732 8.82-26.34 1.655-1.949-1.836-4.001-5.41-8.105-12.558-1.22-2.123-1.829-3.184-2.53-4.107a18.081 18.081 0 00-10.64-6.754c-1.132-.24-2.352-.34-4.792-.539-8.215-.672-12.323-1.007-14.814-1.99-9.722-3.834-14.177-15.089-9.713-24.538 1.143-2.422 3.908-5.478 9.438-11.59 1.642-1.815 2.463-2.723 3.125-3.674a18.08 18.08 0 003.135-12.207c-.121-1.152-.404-2.343-.968-4.724-1.9-8.021-2.85-12.031-2.686-14.704.643-10.431 9.97-18.146 20.336-16.821 2.657.339 6.418 2.025 13.94 5.395 2.233 1.001 3.35 1.501 4.46 1.836a18.08 18.08 0 0012.577-.79c1.058-.471 2.104-1.108 4.195-2.38z" fill="url(#F0y90C3QkZFei)" fill-opacity=".2"/>
    </g>
    <g filter="url(#F0y90C3QkZFej)">
      <path fill-rule="evenodd" clip-rule="evenodd" d="M59.258 176.14c12.248-5.709 20.417-9.475 24.505-11.299 11.675-5.206 14.105-6.121 15.703-6.191.351-.016 1.14.05 1.66.449.439.336.57.803.635 1.131.066.328.156 1.077.115 1.666-.462 6.716-2.8 23.047-4.009 30.588-.512 3.191-1.657 4.286-2.79 4.421-2.462.291-4.385-1.511-6.817-3.01-3.806-2.346-5.96-3.811-9.654-6.1-4.27-2.646-1.589-4.233.737-6.772.609-.665 11.223-10.813 11.41-11.713.023-.113.037-.53-.218-.744-.254-.214-.619-.129-.882-.062-.373.095-6.245 4.191-17.616 12.287-1.665 1.206-3.187 1.812-4.564 1.819-1.519.008-4.46-.738-6.648-1.384-2.685-.792-4.813-1.192-4.667-2.661.075-.766 1.109-1.574 3.1-2.425z" fill="url(#F0y90C3QkZFek)"/>
    </g>
    <g filter="url(#F0y90C3QkZFel)">
      <path d="M267.106 202.753c-13.386 9.545-20.08 14.318-25.953 14.266a18.08 18.08 0 01-13.381-6.101c-3.892-4.4-4.678-12.582-6.251-28.948l-1.241-12.91-1.241-12.91c-1.574-16.366-2.36-24.548.622-29.609a18.08 18.08 0 0111.974-8.538c5.756-1.17 13.235 2.24 28.195 9.06l11.801 5.381 11.801 5.38c14.959 6.82 22.439 10.231 25.331 15.343a18.082 18.082 0 011.407 14.639c-1.865 5.57-8.558 10.342-21.944 19.888l-10.56 7.529-10.56 7.53z" fill="url(#F0y90C3QkZFem)"/>
      <path d="M267.106 202.753c-13.386 9.545-20.08 14.318-25.953 14.266a18.08 18.08 0 01-13.381-6.101c-3.892-4.4-4.678-12.582-6.251-28.948l-1.241-12.91-1.241-12.91c-1.574-16.366-2.36-24.548.622-29.609a18.08 18.08 0 0111.974-8.538c5.756-1.17 13.235 2.24 28.195 9.06l11.801 5.381 11.801 5.38c14.959 6.82 22.439 10.231 25.331 15.343a18.082 18.082 0 011.407 14.639c-1.865 5.57-8.558 10.342-21.944 19.888l-10.56 7.529-10.56 7.53z" fill="url(#F0y90C3QkZFen)" fill-opacity=".2"/>
    </g>
    <g filter="url(#F0y90C3QkZFeo)">
      <path d="M279.178 157l-29.16-13.294c-5.362-2.445-11.397 1.789-10.831 7.694l3.775 39.398c.246 2.572 3.189 3.914 5.292 2.413l32.222-22.986c4.822-3.44 4.064-10.78-1.294-13.223l-.004-.002zm-31.966 24.437l-.461-9.372-1.746-21.226c-.13-1.367 1.273-2.402 2.58-1.807l11.919 5.435-12.297 26.972.005-.002zm29.862-15.981l-17.168 12.611-7.376 5.794 12.297-26.972 11.92 5.434c1.306.596 1.444 2.335.327 3.133z" fill="url(#F0y90C3QkZFep)"/>
    </g>
    <path d="M87.616 40.141c0-9.276 1.407-14.321 7.206-21.409 5.457-6.67 14.545-9.33 22.783-9.33M326.78 145.104c1.674 6.907 2.247 14.44.708 21.367-1.179 5.306-5.984 9.428-8.205 13.87M76.37 254.565c11.008 3.522 21.098 1.81 29.073-6.165 5.16-5.16 8.424-19.326 17.41-19.326" stroke="#3480F1" stroke-width="3" stroke-linecap="round"/>
  </g>
  <defs>
    <radialGradient id="F0y90C3QkZFed" cx="0" cy="0" r="1" gradientUnits="userSpaceOnUse" gradientTransform="rotate(77.314 39.992 128.613) scale(86.5021)">
      <stop stop-color="#fff"/>
      <stop offset="1" stop-color="#fff" stop-opacity="0"/>
    </radialGradient>
    <radialGradient id="F0y90C3QkZFef" cx="0" cy="0" r="1" gradientUnits="userSpaceOnUse" gradientTransform="matrix(1.8495 50.11128 -26.77117 .98806 170.2 58.514)">
      <stop stop-color="#F6FAFF"/>
      <stop offset="1" stop-color="#fff"/>
    </radialGradient>
    <radialGradient id="F0y90C3QkZFei" cx="0" cy="0" r="1" gradientUnits="userSpaceOnUse" gradientTransform="rotate(114.614 1.026 98.328) scale(83.8237 83.3956)">
      <stop stop-color="#fff"/>
      <stop offset="1" stop-color="#fff" stop-opacity="0"/>
    </radialGradient>
    <radialGradient id="F0y90C3QkZFek" cx="0" cy="0" r="1" gradientUnits="userSpaceOnUse" gradientTransform="matrix(2.49884 34.82135 -22.77174 1.63414 77.266 159.237)">
      <stop stop-color="#F6FAFF"/>
      <stop offset="1" stop-color="#fff"/>
    </radialGradient>
    <radialGradient id="F0y90C3QkZFen" cx="0" cy="0" r="1" gradientUnits="userSpaceOnUse" gradientTransform="matrix(19.99188 -66.5562 66.2163 19.88978 255.323 196.775)">
      <stop stop-color="#fff"/>
      <stop offset="1" stop-color="#fff" stop-opacity="0"/>
    </radialGradient>
    <radialGradient id="F0y90C3QkZFep" cx="0" cy="0" r="1" gradientUnits="userSpaceOnUse" gradientTransform="matrix(-16.5241 40.15013 -21.70424 -8.93255 263.23 149.729)">
      <stop stop-color="#F6FAFF"/>
      <stop offset="1" stop-color="#fff"/>
    </radialGradient>
    <filter id="F0y90C3QkZFeb" x="93.333" y="4.14" width="158.563" height="156.631" filterUnits="userSpaceOnUse" color-interpolation-filters="sRGB">
      <feFlood flood-opacity="0" result="BackgroundImageFix"/>
      <feBlend mode="normal" in="SourceGraphic" in2="BackgroundImageFix" result="shape"/>
      <feColorMatrix in="SourceAlpha" type="matrix" values="0 0 0 0 0 0 0 0 0 0 0 0 0 0 0 0 0 0 127 0" result="hardAlpha"/>
      <feOffset/>
      <feGaussianBlur stdDeviation="1.958"/>
      <feComposite in2="hardAlpha" operator="arithmetic" k2="-1" k3="1"/>
      <feColorMatrix type="matrix" values="0 0 0 0 0.203922 0 0 0 0 0.388235 0 0 0 0 0.835294 0 0 0 1 0"/>
      <feBlend mode="normal" in2="shape" result="effect1_innerShadow_76_3434"/>
      <feColorMatrix in="SourceAlpha" type="matrix" values="0 0 0 0 0 0 0 0 0 0 0 0 0 0 0 0 0 0 127 0" result="hardAlpha"/>
      <feOffset dx="1.958" dy="1.958"/>
      <feGaussianBlur stdDeviation="3.917"/>
      <feComposite in2="hardAlpha" operator="arithmetic" k2="-1" k3="1"/>
      <feColorMatrix type="matrix" values="0 0 0 0 0.711393 0 0 0 0 0.827447 0 0 0 0 1 0 0 0 1 0"/>
      <feBlend mode="normal" in2="effect1_innerShadow_76_3434" result="effect2_innerShadow_76_3434"/>
      <feColorMatrix in="SourceAlpha" type="matrix" values="0 0 0 0 0 0 0 0 0 0 0 0 0 0 0 0 0 0 127 0" result="hardAlpha"/>
      <feOffset dx="-.783" dy="-1.958"/>
      <feGaussianBlur stdDeviation="1.763"/>
      <feComposite in2="hardAlpha" operator="arithmetic" k2="-1" k3="1"/>
      <feColorMatrix type="matrix" values="0 0 0 0 0.0539774 0 0 0 0 0.31863 0 0 0 0 0.712126 0 0 0 0.6 0"/>
      <feBlend mode="normal" in2="effect2_innerShadow_76_3434" result="effect3_innerShadow_76_3434"/>
    </filter>
    <filter id="F0y90C3QkZFee" x="143.465" y="57.829" width="56.905" height="57.55" filterUnits="userSpaceOnUse" color-interpolation-filters="sRGB">
      <feFlood flood-opacity="0" result="BackgroundImageFix"/>
      <feColorMatrix in="SourceAlpha" type="matrix" values="0 0 0 0 0 0 0 0 0 0 0 0 0 0 0 0 0 0 127 0" result="hardAlpha"/>
      <feOffset dy=".685"/>
      <feGaussianBlur stdDeviation=".685"/>
      <feComposite in2="hardAlpha" operator="out"/>
      <feColorMatrix type="matrix" values="0 0 0 0 0 0 0 0 0 0 0 0 0 0 0 0 0 0 0.1 0"/>
      <feBlend mode="normal" in2="BackgroundImageFix" result="effect1_dropShadow_76_3434"/>
      <feBlend mode="normal" in="SourceGraphic" in2="effect1_dropShadow_76_3434" result="shape"/>
      <feColorMatrix in="SourceAlpha" type="matrix" values="0 0 0 0 0 0 0 0 0 0 0 0 0 0 0 0 0 0 127 0" result="hardAlpha"/>
      <feOffset dy="-.343"/>
      <feGaussianBlur stdDeviation=".514"/>
      <feComposite in2="hardAlpha" operator="arithmetic" k2="-1" k3="1"/>
      <feColorMatrix type="matrix" values="0 0 0 0 0.73 0 0 0 0 0.719185 0 0 0 0 0.681333 0 0 0 1 0"/>
      <feBlend mode="normal" in2="shape" result="effect2_innerShadow_76_3434"/>
      <feColorMatrix in="SourceAlpha" type="matrix" values="0 0 0 0 0 0 0 0 0 0 0 0 0 0 0 0 0 0 127 0" result="hardAlpha"/>
      <feOffset dy=".685"/>
      <feGaussianBlur stdDeviation=".514"/>
      <feComposite in2="hardAlpha" operator="arithmetic" k2="-1" k3="1"/>
      <feColorMatrix type="matrix" values="0 0 0 0 1 0 0 0 0 1 0 0 0 0 1 0 0 0 0.5 0"/>
      <feBlend mode="normal" in2="effect2_innerShadow_76_3434" result="effect3_innerShadow_76_3434"/>
    </filter>
    <filter id="F0y90C3QkZFeg" x="21.856" y="116.158" width="127.372" height="125.639" filterUnits="userSpaceOnUse" color-interpolation-filters="sRGB">
      <feFlood flood-opacity="0" result="BackgroundImageFix"/>
      <feBlend mode="normal" in="SourceGraphic" in2="BackgroundImageFix" result="shape"/>
      <feColorMatrix in="SourceAlpha" type="matrix" values="0 0 0 0 0 0 0 0 0 0 0 0 0 0 0 0 0 0 127 0" result="hardAlpha"/>
      <feOffset/>
      <feGaussianBlur stdDeviation="1.391"/>
      <feComposite in2="hardAlpha" operator="arithmetic" k2="-1" k3="1"/>
      <feColorMatrix type="matrix" values="0 0 0 0 0 0 0 0 0 0 0 0 0 0 0 0 0 0 1 0"/>
      <feBlend mode="normal" in2="shape" result="effect1_innerShadow_76_3434"/>
      <feColorMatrix in="SourceAlpha" type="matrix" values="0 0 0 0 0 0 0 0 0 0 0 0 0 0 0 0 0 0 127 0" result="hardAlpha"/>
      <feOffset dx="1.391" dy="1.391"/>
      <feGaussianBlur stdDeviation="2.783"/>
      <feComposite in2="hardAlpha" operator="arithmetic" k2="-1" k3="1"/>
      <feColorMatrix type="matrix" values="0 0 0 0 0.732145 0 0 0 0 0.732145 0 0 0 0 0.732145 0 0 0 1 0"/>
      <feBlend mode="normal" in2="effect1_innerShadow_76_3434" result="effect2_innerShadow_76_3434"/>
      <feColorMatrix in="SourceAlpha" type="matrix" values="0 0 0 0 0 0 0 0 0 0 0 0 0 0 0 0 0 0 127 0" result="hardAlpha"/>
      <feOffset dx="-.603" dy="-1.506"/>
      <feGaussianBlur stdDeviation="1.356"/>
      <feComposite in2="hardAlpha" operator="arithmetic" k2="-1" k3="1"/>
      <feColorMatrix type="matrix" values="0 0 0 0 0 0 0 0 0 0 0 0 0 0 0 0 0 0 0.6 0"/>
      <feBlend mode="normal" in2="effect2_innerShadow_76_3434" result="effect3_innerShadow_76_3434"/>
    </filter>
    <filter id="F0y90C3QkZFej" x="54.662" y="157.903" width="48.713" height="41.266" filterUnits="userSpaceOnUse" color-interpolation-filters="sRGB">
      <feFlood flood-opacity="0" result="BackgroundImageFix"/>
      <feColorMatrix in="SourceAlpha" type="matrix" values="0 0 0 0 0 0 0 0 0 0 0 0 0 0 0 0 0 0 127 0" result="hardAlpha"/>
      <feOffset dy=".744"/>
      <feGaussianBlur stdDeviation=".744"/>
      <feComposite in2="hardAlpha" operator="out"/>
      <feColorMatrix type="matrix" values="0 0 0 0 0 0 0 0 0 0 0 0 0 0 0 0 0 0 0.1 0"/>
      <feBlend mode="normal" in2="BackgroundImageFix" result="effect1_dropShadow_76_3434"/>
      <feBlend mode="normal" in="SourceGraphic" in2="effect1_dropShadow_76_3434" result="shape"/>
      <feColorMatrix in="SourceAlpha" type="matrix" values="0 0 0 0 0 0 0 0 0 0 0 0 0 0 0 0 0 0 127 0" result="hardAlpha"/>
      <feOffset dy="-.372"/>
      <feGaussianBlur stdDeviation=".558"/>
      <feComposite in2="hardAlpha" operator="arithmetic" k2="-1" k3="1"/>
      <feColorMatrix type="matrix" values="0 0 0 0 0.73 0 0 0 0 0.719185 0 0 0 0 0.681333 0 0 0 1 0"/>
      <feBlend mode="normal" in2="shape" result="effect2_innerShadow_76_3434"/>
      <feColorMatrix in="SourceAlpha" type="matrix" values="0 0 0 0 0 0 0 0 0 0 0 0 0 0 0 0 0 0 127 0" result="hardAlpha"/>
      <feOffset dy=".744"/>
      <feGaussianBlur stdDeviation=".558"/>
      <feComposite in2="hardAlpha" operator="arithmetic" k2="-1" k3="1"/>
      <feColorMatrix type="matrix" values="0 0 0 0 1 0 0 0 0 1 0 0 0 0 1 0 0 0 0.5 0"/>
      <feBlend mode="normal" in2="effect2_innerShadow_76_3434" result="effect3_innerShadow_76_3434"/>
    </filter>
    <filter id="F0y90C3QkZFel" x="217.039" y="116.27" width="95.458" height="102.14" filterUnits="userSpaceOnUse" color-interpolation-filters="sRGB">
      <feFlood flood-opacity="0" result="BackgroundImageFix"/>
      <feBlend mode="normal" in="SourceGraphic" in2="BackgroundImageFix" result="shape"/>
      <feColorMatrix in="SourceAlpha" type="matrix" values="0 0 0 0 0 0 0 0 0 0 0 0 0 0 0 0 0 0 127 0" result="hardAlpha"/>
      <feOffset/>
      <feGaussianBlur stdDeviation="1.391"/>
      <feComposite in2="hardAlpha" operator="arithmetic" k2="-1" k3="1"/>
      <feColorMatrix type="matrix" values="0 0 0 0 0 0 0 0 0 0 0 0 0 0 0 0 0 0 1 0"/>
      <feBlend mode="normal" in2="shape" result="effect1_innerShadow_76_3434"/>
      <feColorMatrix in="SourceAlpha" type="matrix" values="0 0 0 0 0 0 0 0 0 0 0 0 0 0 0 0 0 0 127 0" result="hardAlpha"/>
      <feOffset dx="1.391" dy="1.391"/>
      <feGaussianBlur stdDeviation="2.783"/>
      <feComposite in2="hardAlpha" operator="arithmetic" k2="-1" k3="1"/>
      <feColorMatrix type="matrix" values="0 0 0 0 0.732145 0 0 0 0 0.732145 0 0 0 0 0.732145 0 0 0 1 0"/>
      <feBlend mode="normal" in2="effect1_innerShadow_76_3434" result="effect2_innerShadow_76_3434"/>
      <feColorMatrix in="SourceAlpha" type="matrix" values="0 0 0 0 0 0 0 0 0 0 0 0 0 0 0 0 0 0 127 0" result="hardAlpha"/>
      <feOffset dx="-.603" dy="-1.506"/>
      <feGaussianBlur stdDeviation="1.356"/>
      <feComposite in2="hardAlpha" operator="arithmetic" k2="-1" k3="1"/>
      <feColorMatrix type="matrix" values="0 0 0 0 0 0 0 0 0 0 0 0 0 0 0 0 0 0 0.6 0"/>
      <feBlend mode="normal" in2="effect2_innerShadow_76_3434" result="effect3_innerShadow_76_3434"/>
    </filter>
    <filter id="F0y90C3QkZFeo" x="237.661" y="142.256" width="47.513" height="53.816" filterUnits="userSpaceOnUse" color-interpolation-filters="sRGB">
      <feFlood flood-opacity="0" result="BackgroundImageFix"/>
      <feColorMatrix in="SourceAlpha" type="matrix" values="0 0 0 0 0 0 0 0 0 0 0 0 0 0 0 0 0 0 127 0" result="hardAlpha"/>
      <feOffset dy=".744"/>
      <feGaussianBlur stdDeviation=".744"/>
      <feComposite in2="hardAlpha" operator="out"/>
      <feColorMatrix type="matrix" values="0 0 0 0 0 0 0 0 0 0 0 0 0 0 0 0 0 0 0.1 0"/>
      <feBlend mode="normal" in2="BackgroundImageFix" result="effect1_dropShadow_76_3434"/>
      <feBlend mode="normal" in="SourceGraphic" in2="effect1_dropShadow_76_3434" result="shape"/>
      <feColorMatrix in="SourceAlpha" type="matrix" values="0 0 0 0 0 0 0 0 0 0 0 0 0 0 0 0 0 0 127 0" result="hardAlpha"/>
      <feOffset dy="-.372"/>
      <feGaussianBlur stdDeviation=".558"/>
      <feComposite in2="hardAlpha" operator="arithmetic" k2="-1" k3="1"/>
      <feColorMatrix type="matrix" values="0 0 0 0 0.73 0 0 0 0 0.719185 0 0 0 0 0.681333 0 0 0 1 0"/>
      <feBlend mode="normal" in2="shape" result="effect2_innerShadow_76_3434"/>
      <feColorMatrix in="SourceAlpha" type="matrix" values="0 0 0 0 0 0 0 0 0 0 0 0 0 0 0 0 0 0 127 0" result="hardAlpha"/>
      <feOffset dy=".744"/>
      <feGaussianBlur stdDeviation=".558"/>
      <feComposite in2="hardAlpha" operator="arithmetic" k2="-1" k3="1"/>
      <feColorMatrix type="matrix" values="0 0 0 0 1 0 0 0 0 1 0 0 0 0 1 0 0 0 0.5 0"/>
      <feBlend mode="normal" in2="effect2_innerShadow_76_3434" result="effect3_innerShadow_76_3434"/>
    </filter>
    <linearGradient id="F0y90C3QkZFec" x1="172.027" y1="-24" x2="172.026" y2="195.196" gradientUnits="userSpaceOnUse">
      <stop stop-color="#0067FF"/>
      <stop offset="1" stop-color="#3480F1"/>
    </linearGradient>
    <linearGradient id="F0y90C3QkZFeh" x1="131.312" y1="101.26" x2="37.165" y2="249.59" gradientUnits="userSpaceOnUse">
      <stop/>
      <stop offset="1" stop-color="#5F5F5F"/>
    </linearGradient>
    <linearGradient id="F0y90C3QkZFem" x1="226.314" y1="231.84" x2="286.736" y2="99.312" gradientUnits="userSpaceOnUse">
      <stop/>
      <stop offset="1" stop-color="#5F5F5F"/>
    </linearGradient>
    <clipPath id="F0y90C3QkZFea">
      <path fill="#fff" d="M0 0h343v264H0z"/>
    </clipPath>
  </defs>
</svg>
