<svg fill="none" xmlns="http://www.w3.org/2000/svg" viewBox="0 0 36 52">
  <g clip-path="url(#z-aLmMPgisoea)">
    <path d="M35.255 32.932h.008c0-14.562-14.938-24.772-18.208-31.891C16.738.356 16.258 0 15.752 0c-.401 0-.822.228-1.186.693-4.48 5.714-5.042 11.386-4.26 16.172.569 3.466 1.841 6.472 2.846 8.7.93 2.067.889 3.173.074 3.173-.506 0-1.31-.425-2.362-1.311-2.154-1.819-4.282-4.682-5.622-6.925a37.236 37.236 0 01-.38-.654c-.39-.697-.866-1.041-1.335-1.041-.495 0-.975.39-1.31 1.172C.584 23.763.033 29.532.004 33.199a13.46 13.46 0 00-.004.348c0 10.125 7.895 18.335 17.635 18.335 9.737 0 17.631-8.21 17.631-18.335 0-.205-.003-.41-.01-.615zm-17.62 13.534c-6.853 0-12.426-5.796-12.426-12.919 0-.054-.004-.112 0-.174v-.127c0-.144.004-.287.007-.434v-.081c0-.023 0-.047.004-.066.063-1.656 1.083-2.112 2.344-1.044.007.007.015.011.022.019 2.043 1.718 3.836 2.515 5.64 2.515 2.006 0 3.832-1.033 4.893-2.763 1.96-3.21.294-6.91-.253-8.124-1.001-2.225-1.99-4.65-2.426-7.309a16.51 16.51 0 01-.223-2.662c0-.212.003-.425.015-.638-.004-.012 0-.02 0-.03.007-.182.019-.362.037-.543 0-.023 0-.042.004-.065.007-.085.018-.17.03-.248.249-1.718 1.365-2.02 2.555-.646 0 .004.004.008.008.012.413.483.84.975 1.276 1.478 4.807 5.532 10.216 11.757 10.849 18.926l.06 1.594c.003.136.007.275.007.41 0 7.123-5.573 12.919-12.423 12.919z" fill="#FFFDF9"/>
  </g>
  <defs>
    <clipPath id="z-aLmMPgisoea">
      <path fill="#fff" d="M0 0h35.266v51.882H0z"/>
    </clipPath>
  </defs>
</svg>
