<svg fill="none" xmlns="http://www.w3.org/2000/svg" viewBox="0 0 536 441">
  <g filter="url(#FgwE67ohOdwTa)">
    <path d="M264.027 63.013c2.222-6.056 3.334-9.085 4.206-10.627 8.318-14.718 29.517-14.718 37.835 0 .872 1.542 1.983 4.57 4.206 10.627.903 2.462 1.355 3.692 1.846 4.697a21.73 21.73 0 0024.237 11.672c1.092-.242 2.336-.657 4.823-1.485 6.121-2.039 9.182-3.058 10.931-3.338 16.693-2.672 29.91 13.901 23.59 29.581-.662 1.643-2.337 4.4-5.686 9.914-1.362 2.241-2.042 3.361-2.522 4.372a21.73 21.73 0 005.987 26.227c.87.702 1.969 1.416 4.168 2.845 5.41 3.514 8.115 5.271 9.425 6.465 12.497 11.384 7.78 32.052-8.419 36.887-1.698.506-4.898.916-11.297 1.735-2.601.333-3.901.499-4.99.754a21.732 21.732 0 00-16.773 21.033c-.006 1.118.121 2.423.375 5.033.625 6.421.938 9.631.822 11.399-1.109 16.869-20.208 26.067-34.089 16.417-1.455-1.012-3.77-3.258-8.4-7.751-1.882-1.825-2.822-2.738-3.701-3.43a21.73 21.73 0 00-26.902 0c-.878.692-1.819 1.605-3.7 3.43-4.631 4.493-6.946 6.739-8.401 7.751-13.88 9.65-32.979.452-34.088-16.417-.116-1.768.196-4.978.822-11.399.254-2.61.381-3.915.374-5.033a21.73 21.73 0 00-16.773-21.033c-1.088-.255-2.389-.421-4.989-.754-6.4-.819-9.599-1.229-11.297-1.735-16.199-4.835-20.917-25.503-8.419-36.887 1.31-1.194 4.015-2.951 9.425-6.465 2.198-1.429 3.298-2.143 4.168-2.845a21.728 21.728 0 005.986-26.227c-.479-1.011-1.16-2.131-2.521-4.372-3.349-5.514-5.024-8.271-5.687-9.914-6.32-15.68 6.898-32.254 23.59-29.581 1.75.28 4.811 1.3 10.932 3.338 2.487.828 3.731 1.243 4.822 1.485a21.73 21.73 0 0024.238-11.672c.491-1.005.943-2.235 1.846-4.697z" fill="url(#FgwE67ohOdwTb)"/>
    <path d="M264.027 63.013c2.222-6.056 3.334-9.085 4.206-10.627 8.318-14.718 29.517-14.718 37.835 0 .872 1.542 1.983 4.57 4.206 10.627.903 2.462 1.355 3.692 1.846 4.697a21.73 21.73 0 0024.237 11.672c1.092-.242 2.336-.657 4.823-1.485 6.121-2.039 9.182-3.058 10.931-3.338 16.693-2.672 29.91 13.901 23.59 29.581-.662 1.643-2.337 4.4-5.686 9.914-1.362 2.241-2.042 3.361-2.522 4.372a21.73 21.73 0 005.987 26.227c.87.702 1.969 1.416 4.168 2.845 5.41 3.514 8.115 5.271 9.425 6.465 12.497 11.384 7.78 32.052-8.419 36.887-1.698.506-4.898.916-11.297 1.735-2.601.333-3.901.499-4.99.754a21.732 21.732 0 00-16.773 21.033c-.006 1.118.121 2.423.375 5.033.625 6.421.938 9.631.822 11.399-1.109 16.869-20.208 26.067-34.089 16.417-1.455-1.012-3.77-3.258-8.4-7.751-1.882-1.825-2.822-2.738-3.701-3.43a21.73 21.73 0 00-26.902 0c-.878.692-1.819 1.605-3.7 3.43-4.631 4.493-6.946 6.739-8.401 7.751-13.88 9.65-32.979.452-34.088-16.417-.116-1.768.196-4.978.822-11.399.254-2.61.381-3.915.374-5.033a21.73 21.73 0 00-16.773-21.033c-1.088-.255-2.389-.421-4.989-.754-6.4-.819-9.599-1.229-11.297-1.735-16.199-4.835-20.917-25.503-8.419-36.887 1.31-1.194 4.015-2.951 9.425-6.465 2.198-1.429 3.298-2.143 4.168-2.845a21.728 21.728 0 005.986-26.227c-.479-1.011-1.16-2.131-2.521-4.372-3.349-5.514-5.024-8.271-5.687-9.914-6.32-15.68 6.898-32.254 23.59-29.581 1.75.28 4.811 1.3 10.932 3.338 2.487.828 3.731 1.243 4.822 1.485a21.73 21.73 0 0024.238-11.672c.491-1.005.943-2.235 1.846-4.697z" fill="url(#FgwE67ohOdwTc)" fill-opacity=".2"/>
  </g>
  <g filter="url(#FgwE67ohOdwTd)">
    <path fill-rule="evenodd" clip-rule="evenodd" d="M269.284 168.928c18.063 18.278 40.639 25.07 50.423 15.169 7.459-7.548 5.331-22.618-4.104-37.452a337.525 337.525 0 006.522-11.343c1.761-3.203-.382-7.119-4.016-7.338a324.603 324.603 0 00-19.519-.586h-.08c-16.747-13.894-35.527-18.268-44.217-9.474-9.784 9.901-3.073 32.745 14.991 51.024zm29.226-41.55c-6.526.002-13.007.199-19.439.586-3.634.219-5.776 4.135-4.016 7.338a337.55 337.55 0 0019.493 31.294 4.92 4.92 0 008.084 0 337.586 337.586 0 0012.971-19.951c-2.942-4.625-6.593-9.228-10.887-13.572a85.48 85.48 0 00-6.206-5.695z" fill="url(#FgwE67ohOdwTe)"/>
  </g>
  <g filter="url(#FgwE67ohOdwTf)">
    <path d="M176.868 205.159c9.673-5.887 14.509-8.831 18.071-9.75 13.901-3.589 27.94 5.322 30.609 19.428.684 3.615.079 9.244-1.131 20.502-.36 3.343-.539 5.015-.506 6.606a24.834 24.834 0 006.372 16.098c1.065 1.182 2.34 2.278 4.89 4.469 8.589 7.38 12.883 11.07 14.858 14.173 7.709 12.112 3.573 28.218-9.018 35.116-3.227 1.767-8.767 2.931-19.849 5.259-3.291.691-4.936 1.037-6.439 1.56a24.836 24.836 0 00-13.34 11.035c-.796 1.378-1.444 2.929-2.74 6.032-4.365 10.449-6.547 15.673-8.888 18.51-9.137 11.075-25.732 12.118-36.184 2.274-2.678-2.522-5.497-7.432-11.135-17.251-1.674-2.916-2.512-4.374-3.474-5.642a24.837 24.837 0 00-14.617-9.278c-1.556-.331-3.232-.468-6.583-.741-11.286-.923-16.929-1.384-20.351-2.733-13.356-5.268-19.476-20.729-13.344-33.71 1.57-3.327 5.37-7.525 12.966-15.922 2.256-2.493 3.384-3.74 4.292-5.047a24.832 24.832 0 004.307-16.768c-.166-1.583-.554-3.219-1.329-6.491-2.611-11.018-3.916-16.527-3.69-20.199.883-14.33 13.696-24.928 27.937-23.108 3.649.466 8.815 2.781 19.149 7.412 3.068 1.374 4.603 2.062 6.126 2.522a24.836 24.836 0 0017.279-1.086c1.454-.647 2.89-1.521 5.762-3.27z" fill="url(#FgwE67ohOdwTg)"/>
    <path d="M176.868 205.159c9.673-5.887 14.509-8.831 18.071-9.75 13.901-3.589 27.94 5.322 30.609 19.428.684 3.615.079 9.244-1.131 20.502-.36 3.343-.539 5.015-.506 6.606a24.834 24.834 0 006.372 16.098c1.065 1.182 2.34 2.278 4.89 4.469 8.589 7.38 12.883 11.07 14.858 14.173 7.709 12.112 3.573 28.218-9.018 35.116-3.227 1.767-8.767 2.931-19.849 5.259-3.291.691-4.936 1.037-6.439 1.56a24.836 24.836 0 00-13.34 11.035c-.796 1.378-1.444 2.929-2.74 6.032-4.365 10.449-6.547 15.673-8.888 18.51-9.137 11.075-25.732 12.118-36.184 2.274-2.678-2.522-5.497-7.432-11.135-17.251-1.674-2.916-2.512-4.374-3.474-5.642a24.837 24.837 0 00-14.617-9.278c-1.556-.331-3.232-.468-6.583-.741-11.286-.923-16.929-1.384-20.351-2.733-13.356-5.268-19.476-20.729-13.344-33.71 1.57-3.327 5.37-7.525 12.966-15.922 2.256-2.493 3.384-3.74 4.292-5.047a24.832 24.832 0 004.307-16.768c-.166-1.583-.554-3.219-1.329-6.491-2.611-11.018-3.916-16.527-3.69-20.199.883-14.33 13.696-24.928 27.937-23.108 3.649.466 8.815 2.781 19.149 7.412 3.068 1.374 4.603 2.062 6.126 2.522a24.836 24.836 0 0017.279-1.086c1.454-.647 2.89-1.521 5.762-3.27z" fill="url(#FgwE67ohOdwTh)" fill-opacity=".2"/>
  </g>
  <g filter="url(#FgwE67ohOdwTi)">
    <path fill-rule="evenodd" clip-rule="evenodd" d="M132.233 274.944c16.826-7.843 28.048-13.017 33.665-15.522 16.037-7.153 19.376-8.41 21.571-8.506.483-.022 1.566.069 2.281.617.603.462.783 1.103.872 1.554.09.451.214 1.48.159 2.288-.636 9.227-3.847 31.662-5.508 42.021-.703 4.383-2.276 5.888-3.833 6.073-3.382.4-6.024-2.076-9.365-4.135-5.228-3.222-8.187-5.236-13.262-8.38-5.865-3.635-2.183-5.815 1.012-9.303.837-.913 15.418-14.854 15.675-16.091.032-.154.05-.728-.299-1.022-.35-.293-.851-.176-1.212-.084-.513.13-8.579 5.756-24.2 16.878-2.288 1.657-4.378 2.49-6.27 2.499-2.086.011-6.127-1.013-9.133-1.9-3.688-1.088-6.611-1.638-6.411-3.657.104-1.051 1.523-2.162 4.258-3.33z" fill="url(#FgwE67ohOdwTj)"/>
  </g>
  <g filter="url(#FgwE67ohOdwTk)">
    <path d="M417.765 311.503c-18.39 13.113-27.584 19.669-35.653 19.597a24.833 24.833 0 01-18.382-8.38c-5.346-6.045-6.427-17.286-8.588-39.767l-1.705-17.736-1.705-17.735c-2.161-22.482-3.241-33.723.855-40.675a24.834 24.834 0 0116.449-11.729c7.908-1.607 18.183 3.077 38.733 12.447l16.212 7.391 16.212 7.391c20.55 9.369 30.825 14.054 34.798 21.078a24.834 24.834 0 011.933 20.109c-2.562 7.652-11.756 14.209-30.146 27.321l-14.507 10.344-14.506 10.344z" fill="url(#FgwE67ohOdwTl)"/>
    <path d="M417.765 311.503c-18.39 13.113-27.584 19.669-35.653 19.597a24.833 24.833 0 01-18.382-8.38c-5.346-6.045-6.427-17.286-8.588-39.767l-1.705-17.736-1.705-17.735c-2.161-22.482-3.241-33.723.855-40.675a24.834 24.834 0 0116.449-11.729c7.908-1.607 18.183 3.077 38.733 12.447l16.212 7.391 16.212 7.391c20.55 9.369 30.825 14.054 34.798 21.078a24.834 24.834 0 011.933 20.109c-2.562 7.652-11.756 14.209-30.146 27.321l-14.507 10.344-14.506 10.344z" fill="url(#FgwE67ohOdwTm)" fill-opacity=".2"/>
  </g>
  <g filter="url(#FgwE67ohOdwTn)">
    <path d="M434.35 248.649l-40.059-18.264c-7.366-3.358-15.656 2.459-14.879 10.571l5.186 54.122c.338 3.534 4.381 5.377 7.27 3.315l44.265-31.577c6.624-4.726 5.582-14.809-1.778-18.165l-.005-.002zm-43.913 33.57l-.634-12.875-2.398-29.159c-.179-1.878 1.749-3.301 3.543-2.482l16.375 7.465-16.894 37.054.008-.003zm41.022-21.955l-23.584 17.325-10.133 7.96 16.893-37.053 16.375 7.465c1.794.819 1.984 3.207.449 4.303z" fill="url(#FgwE67ohOdwTo)"/>
  </g>
  <defs>
    <radialGradient id="FgwE67ohOdwTc" cx="0" cy="0" r="1" gradientUnits="userSpaceOnUse" gradientTransform="rotate(77.314 59.745 224.938) scale(118.832)">
      <stop stop-color="#fff"/>
      <stop offset="1" stop-color="#fff" stop-opacity="0"/>
    </radialGradient>
    <radialGradient id="FgwE67ohOdwTe" cx="0" cy="0" r="1" gradientUnits="userSpaceOnUse" gradientTransform="matrix(2.5411 68.84032 -36.77695 1.35755 284.641 113.352)">
      <stop stop-color="#F6FAFF"/>
      <stop offset="1" stop-color="#fff"/>
    </radialGradient>
    <radialGradient id="FgwE67ohOdwTh" cx="0" cy="0" r="1" gradientUnits="userSpaceOnUse" gradientTransform="matrix(-47.96156 104.68955 -104.15498 -47.71666 175.629 223.028)">
      <stop stop-color="#fff"/>
      <stop offset="1" stop-color="#fff" stop-opacity="0"/>
    </radialGradient>
    <radialGradient id="FgwE67ohOdwTj" cx="0" cy="0" r="1" gradientUnits="userSpaceOnUse" gradientTransform="matrix(3.43278 47.83589 -31.28275 2.2449 156.972 251.722)">
      <stop stop-color="#F6FAFF"/>
      <stop offset="1" stop-color="#fff"/>
    </radialGradient>
    <radialGradient id="FgwE67ohOdwTm" cx="0" cy="0" r="1" gradientUnits="userSpaceOnUse" gradientTransform="rotate(-73.281 404.678 -118.32) scale(95.4672 94.9796)">
      <stop stop-color="#fff"/>
      <stop offset="1" stop-color="#fff" stop-opacity="0"/>
    </radialGradient>
    <radialGradient id="FgwE67ohOdwTo" cx="0" cy="0" r="1" gradientUnits="userSpaceOnUse" gradientTransform="rotate(112.37 126.29 257.46) scale(59.6447 32.2426)">
      <stop stop-color="#F6FAFF"/>
      <stop offset="1" stop-color="#fff"/>
    </radialGradient>
    <filter id="FgwE67ohOdwTa" x="179.044" y="38.657" width="217.826" height="215.172" filterUnits="userSpaceOnUse" color-interpolation-filters="sRGB">
      <feFlood flood-opacity="0" result="BackgroundImageFix"/>
      <feBlend mode="normal" in="SourceGraphic" in2="BackgroundImageFix" result="shape"/>
      <feColorMatrix in="SourceAlpha" type="matrix" values="0 0 0 0 0 0 0 0 0 0 0 0 0 0 0 0 0 0 127 0" result="hardAlpha"/>
      <feOffset/>
      <feGaussianBlur stdDeviation="2.69"/>
      <feComposite in2="hardAlpha" operator="arithmetic" k2="-1" k3="1"/>
      <feColorMatrix type="matrix" values="0 0 0 0 0.203922 0 0 0 0 0.388235 0 0 0 0 0.835294 0 0 0 1 0"/>
      <feBlend mode="normal" in2="shape" result="effect1_innerShadow_103_4904"/>
      <feColorMatrix in="SourceAlpha" type="matrix" values="0 0 0 0 0 0 0 0 0 0 0 0 0 0 0 0 0 0 127 0" result="hardAlpha"/>
      <feOffset dx="2.69" dy="2.69"/>
      <feGaussianBlur stdDeviation="5.381"/>
      <feComposite in2="hardAlpha" operator="arithmetic" k2="-1" k3="1"/>
      <feColorMatrix type="matrix" values="0 0 0 0 0.711393 0 0 0 0 0.827447 0 0 0 0 1 0 0 0 1 0"/>
      <feBlend mode="normal" in2="effect1_innerShadow_103_4904" result="effect2_innerShadow_103_4904"/>
      <feColorMatrix in="SourceAlpha" type="matrix" values="0 0 0 0 0 0 0 0 0 0 0 0 0 0 0 0 0 0 127 0" result="hardAlpha"/>
      <feOffset dx="-1.076" dy="-2.69"/>
      <feGaussianBlur stdDeviation="2.421"/>
      <feComposite in2="hardAlpha" operator="arithmetic" k2="-1" k3="1"/>
      <feColorMatrix type="matrix" values="0 0 0 0 0.0539774 0 0 0 0 0.31863 0 0 0 0 0.712126 0 0 0 0.6 0"/>
      <feBlend mode="normal" in2="effect2_innerShadow_103_4904" result="effect3_innerShadow_103_4904"/>
    </filter>
    <filter id="FgwE67ohOdwTd" x="247.914" y="112.412" width="78.173" height="79.059" filterUnits="userSpaceOnUse" color-interpolation-filters="sRGB">
      <feFlood flood-opacity="0" result="BackgroundImageFix"/>
      <feColorMatrix in="SourceAlpha" type="matrix" values="0 0 0 0 0 0 0 0 0 0 0 0 0 0 0 0 0 0 127 0" result="hardAlpha"/>
      <feOffset dy=".941"/>
      <feGaussianBlur stdDeviation=".941"/>
      <feComposite in2="hardAlpha" operator="out"/>
      <feColorMatrix type="matrix" values="0 0 0 0 0 0 0 0 0 0 0 0 0 0 0 0 0 0 0.1 0"/>
      <feBlend mode="normal" in2="BackgroundImageFix" result="effect1_dropShadow_103_4904"/>
      <feBlend mode="normal" in="SourceGraphic" in2="effect1_dropShadow_103_4904" result="shape"/>
      <feColorMatrix in="SourceAlpha" type="matrix" values="0 0 0 0 0 0 0 0 0 0 0 0 0 0 0 0 0 0 127 0" result="hardAlpha"/>
      <feOffset dy="-.471"/>
      <feGaussianBlur stdDeviation=".706"/>
      <feComposite in2="hardAlpha" operator="arithmetic" k2="-1" k3="1"/>
      <feColorMatrix type="matrix" values="0 0 0 0 0.73 0 0 0 0 0.719185 0 0 0 0 0.681333 0 0 0 1 0"/>
      <feBlend mode="normal" in2="shape" result="effect2_innerShadow_103_4904"/>
      <feColorMatrix in="SourceAlpha" type="matrix" values="0 0 0 0 0 0 0 0 0 0 0 0 0 0 0 0 0 0 127 0" result="hardAlpha"/>
      <feOffset dy=".941"/>
      <feGaussianBlur stdDeviation=".706"/>
      <feComposite in2="hardAlpha" operator="arithmetic" k2="-1" k3="1"/>
      <feColorMatrix type="matrix" values="0 0 0 0 1 0 0 0 0 1 0 0 0 0 1 0 0 0 0.5 0"/>
      <feBlend mode="normal" in2="effect2_innerShadow_103_4904" result="effect3_innerShadow_103_4904"/>
    </filter>
    <filter id="FgwE67ohOdwTf" x="80.854" y="192.543" width="174.977" height="172.596" filterUnits="userSpaceOnUse" color-interpolation-filters="sRGB">
      <feFlood flood-opacity="0" result="BackgroundImageFix"/>
      <feBlend mode="normal" in="SourceGraphic" in2="BackgroundImageFix" result="shape"/>
      <feColorMatrix in="SourceAlpha" type="matrix" values="0 0 0 0 0 0 0 0 0 0 0 0 0 0 0 0 0 0 127 0" result="hardAlpha"/>
      <feOffset/>
      <feGaussianBlur stdDeviation="1.911"/>
      <feComposite in2="hardAlpha" operator="arithmetic" k2="-1" k3="1"/>
      <feColorMatrix type="matrix" values="0 0 0 0 0 0 0 0 0 0 0 0 0 0 0 0 0 0 1 0"/>
      <feBlend mode="normal" in2="shape" result="effect1_innerShadow_103_4904"/>
      <feColorMatrix in="SourceAlpha" type="matrix" values="0 0 0 0 0 0 0 0 0 0 0 0 0 0 0 0 0 0 127 0" result="hardAlpha"/>
      <feOffset dx="1.911" dy="1.911"/>
      <feGaussianBlur stdDeviation="3.823"/>
      <feComposite in2="hardAlpha" operator="arithmetic" k2="-1" k3="1"/>
      <feColorMatrix type="matrix" values="0 0 0 0 0.732145 0 0 0 0 0.732145 0 0 0 0 0.732145 0 0 0 1 0"/>
      <feBlend mode="normal" in2="effect1_innerShadow_103_4904" result="effect2_innerShadow_103_4904"/>
      <feColorMatrix in="SourceAlpha" type="matrix" values="0 0 0 0 0 0 0 0 0 0 0 0 0 0 0 0 0 0 127 0" result="hardAlpha"/>
      <feOffset dx="-.828" dy="-2.07"/>
      <feGaussianBlur stdDeviation="1.863"/>
      <feComposite in2="hardAlpha" operator="arithmetic" k2="-1" k3="1"/>
      <feColorMatrix type="matrix" values="0 0 0 0 0 0 0 0 0 0 0 0 0 0 0 0 0 0 0.6 0"/>
      <feBlend mode="normal" in2="effect2_innerShadow_103_4904" result="effect3_innerShadow_103_4904"/>
    </filter>
    <filter id="FgwE67ohOdwTi" x="125.92" y="249.89" width="66.92" height="56.689" filterUnits="userSpaceOnUse" color-interpolation-filters="sRGB">
      <feFlood flood-opacity="0" result="BackgroundImageFix"/>
      <feColorMatrix in="SourceAlpha" type="matrix" values="0 0 0 0 0 0 0 0 0 0 0 0 0 0 0 0 0 0 127 0" result="hardAlpha"/>
      <feOffset dy="1.023"/>
      <feGaussianBlur stdDeviation="1.023"/>
      <feComposite in2="hardAlpha" operator="out"/>
      <feColorMatrix type="matrix" values="0 0 0 0 0 0 0 0 0 0 0 0 0 0 0 0 0 0 0.1 0"/>
      <feBlend mode="normal" in2="BackgroundImageFix" result="effect1_dropShadow_103_4904"/>
      <feBlend mode="normal" in="SourceGraphic" in2="effect1_dropShadow_103_4904" result="shape"/>
      <feColorMatrix in="SourceAlpha" type="matrix" values="0 0 0 0 0 0 0 0 0 0 0 0 0 0 0 0 0 0 127 0" result="hardAlpha"/>
      <feOffset dy="-.511"/>
      <feGaussianBlur stdDeviation=".767"/>
      <feComposite in2="hardAlpha" operator="arithmetic" k2="-1" k3="1"/>
      <feColorMatrix type="matrix" values="0 0 0 0 0.73 0 0 0 0 0.719185 0 0 0 0 0.681333 0 0 0 1 0"/>
      <feBlend mode="normal" in2="shape" result="effect2_innerShadow_103_4904"/>
      <feColorMatrix in="SourceAlpha" type="matrix" values="0 0 0 0 0 0 0 0 0 0 0 0 0 0 0 0 0 0 127 0" result="hardAlpha"/>
      <feOffset dy="1.023"/>
      <feGaussianBlur stdDeviation=".767"/>
      <feComposite in2="hardAlpha" operator="arithmetic" k2="-1" k3="1"/>
      <feColorMatrix type="matrix" values="0 0 0 0 1 0 0 0 0 1 0 0 0 0 1 0 0 0 0.5 0"/>
      <feBlend mode="normal" in2="effect2_innerShadow_103_4904" result="effect3_innerShadow_103_4904"/>
    </filter>
    <filter id="FgwE67ohOdwTk" x="348.985" y="192.697" width="131.135" height="140.315" filterUnits="userSpaceOnUse" color-interpolation-filters="sRGB">
      <feFlood flood-opacity="0" result="BackgroundImageFix"/>
      <feBlend mode="normal" in="SourceGraphic" in2="BackgroundImageFix" result="shape"/>
      <feColorMatrix in="SourceAlpha" type="matrix" values="0 0 0 0 0 0 0 0 0 0 0 0 0 0 0 0 0 0 127 0" result="hardAlpha"/>
      <feOffset/>
      <feGaussianBlur stdDeviation="1.911"/>
      <feComposite in2="hardAlpha" operator="arithmetic" k2="-1" k3="1"/>
      <feColorMatrix type="matrix" values="0 0 0 0 0 0 0 0 0 0 0 0 0 0 0 0 0 0 1 0"/>
      <feBlend mode="normal" in2="shape" result="effect1_innerShadow_103_4904"/>
      <feColorMatrix in="SourceAlpha" type="matrix" values="0 0 0 0 0 0 0 0 0 0 0 0 0 0 0 0 0 0 127 0" result="hardAlpha"/>
      <feOffset dx="1.911" dy="1.911"/>
      <feGaussianBlur stdDeviation="3.823"/>
      <feComposite in2="hardAlpha" operator="arithmetic" k2="-1" k3="1"/>
      <feColorMatrix type="matrix" values="0 0 0 0 0.732145 0 0 0 0 0.732145 0 0 0 0 0.732145 0 0 0 1 0"/>
      <feBlend mode="normal" in2="effect1_innerShadow_103_4904" result="effect2_innerShadow_103_4904"/>
      <feColorMatrix in="SourceAlpha" type="matrix" values="0 0 0 0 0 0 0 0 0 0 0 0 0 0 0 0 0 0 127 0" result="hardAlpha"/>
      <feOffset dx="-.828" dy="-2.07"/>
      <feGaussianBlur stdDeviation="1.863"/>
      <feComposite in2="hardAlpha" operator="arithmetic" k2="-1" k3="1"/>
      <feColorMatrix type="matrix" values="0 0 0 0 0 0 0 0 0 0 0 0 0 0 0 0 0 0 0.6 0"/>
      <feBlend mode="normal" in2="effect2_innerShadow_103_4904" result="effect3_innerShadow_103_4904"/>
    </filter>
    <filter id="FgwE67ohOdwTn" x="377.316" y="228.393" width="65.27" height="73.93" filterUnits="userSpaceOnUse" color-interpolation-filters="sRGB">
      <feFlood flood-opacity="0" result="BackgroundImageFix"/>
      <feColorMatrix in="SourceAlpha" type="matrix" values="0 0 0 0 0 0 0 0 0 0 0 0 0 0 0 0 0 0 127 0" result="hardAlpha"/>
      <feOffset dy="1.023"/>
      <feGaussianBlur stdDeviation="1.023"/>
      <feComposite in2="hardAlpha" operator="out"/>
      <feColorMatrix type="matrix" values="0 0 0 0 0 0 0 0 0 0 0 0 0 0 0 0 0 0 0.1 0"/>
      <feBlend mode="normal" in2="BackgroundImageFix" result="effect1_dropShadow_103_4904"/>
      <feBlend mode="normal" in="SourceGraphic" in2="effect1_dropShadow_103_4904" result="shape"/>
      <feColorMatrix in="SourceAlpha" type="matrix" values="0 0 0 0 0 0 0 0 0 0 0 0 0 0 0 0 0 0 127 0" result="hardAlpha"/>
      <feOffset dy="-.511"/>
      <feGaussianBlur stdDeviation=".767"/>
      <feComposite in2="hardAlpha" operator="arithmetic" k2="-1" k3="1"/>
      <feColorMatrix type="matrix" values="0 0 0 0 0.73 0 0 0 0 0.719185 0 0 0 0 0.681333 0 0 0 1 0"/>
      <feBlend mode="normal" in2="shape" result="effect2_innerShadow_103_4904"/>
      <feColorMatrix in="SourceAlpha" type="matrix" values="0 0 0 0 0 0 0 0 0 0 0 0 0 0 0 0 0 0 127 0" result="hardAlpha"/>
      <feOffset dy="1.023"/>
      <feGaussianBlur stdDeviation=".767"/>
      <feComposite in2="hardAlpha" operator="arithmetic" k2="-1" k3="1"/>
      <feColorMatrix type="matrix" values="0 0 0 0 1 0 0 0 0 1 0 0 0 0 1 0 0 0 0.5 0"/>
      <feBlend mode="normal" in2="effect2_innerShadow_103_4904" result="effect3_innerShadow_103_4904"/>
    </filter>
    <linearGradient id="FgwE67ohOdwTb" x1="287.15" y1="0" x2="287.15" y2="301.12" gradientUnits="userSpaceOnUse">
      <stop stop-color="#0067FF"/>
      <stop offset="1" stop-color="#3480F1"/>
    </linearGradient>
    <linearGradient id="FgwE67ohOdwTg" x1="231.218" y1="172.077" x2="101.884" y2="375.845" gradientUnits="userSpaceOnUse">
      <stop/>
      <stop offset="1" stop-color="#5F5F5F"/>
    </linearGradient>
    <linearGradient id="FgwE67ohOdwTl" x1="361.728" y1="351.461" x2="444.732" y2="169.401" gradientUnits="userSpaceOnUse">
      <stop/>
      <stop offset="1" stop-color="#5F5F5F"/>
    </linearGradient>
  </defs>
</svg>
