<svg fill="none" xmlns="http://www.w3.org/2000/svg" viewBox="0 0 33 23">
  <path fill-rule="evenodd" clip-rule="evenodd" d="M23.583 0c4.884 0 8.844 3.966 8.844 8.858v5.167c0 4.485-3.63 8.12-8.107 8.12a8.08 8.08 0 01-5.994-2.653c-.551-.606-1.295-1.038-2.113-1.038-.818 0-1.561.432-2.112 1.038a8.08 8.08 0 01-5.994 2.653C3.629 22.145 0 18.51 0 14.025V8.858C0 3.966 3.96 0 8.844 0h14.739zm0 10.334a2.213 2.213 0 002.211-2.214c0-1.223-.99-2.215-2.211-2.215-1.221 0-2.21.992-2.21 2.215 0 1.223.989 2.214 2.21 2.214zM6.633 8.12c0-.408.33-.738.737-.738h1.474c.407 0 .737.33.737.738v2.214h2.21c.407 0 .737.33.737.739v1.476c0 .408-.33.738-.737.738h-2.21v2.214c0 .408-.33.739-.737.739H7.37a.738.738 0 01-.737-.738v-2.215H4.422a.738.738 0 01-.737-.738v-1.476c0-.408.33-.739.737-.739h2.21V8.12zm19.161 7.382c0 1.223-.99 2.214-2.211 2.214a2.213 2.213 0 01-2.21-2.215 2.212 2.212 0 114.421 0zm-5.896-1.477a2.212 2.212 0 002.211-2.214c0-1.223-.99-2.215-2.21-2.215a2.213 2.213 0 00-2.212 2.215c0 1.223.99 2.214 2.211 2.214zm9.58-2.214a2.212 2.212 0 01-2.21 2.214 2.213 2.213 0 01-2.211-2.214c0-1.223.99-2.215 2.21-2.215 1.222 0 2.212.992 2.212 2.215z" fill="url(#UbiMj5AM465ea)"/>
  <defs>
    <radialGradient id="UbiMj5AM465ea" cx="0" cy="0" r="1" gradientUnits="userSpaceOnUse" gradientTransform="matrix(1.10717 20.24695 -16.0012 .875 15.186 0)">
      <stop stop-color="#FFFDF9"/>
      <stop offset="1" stop-color="#FFFDF9"/>
    </radialGradient>
  </defs>
</svg>
