<svg fill="none" xmlns="http://www.w3.org/2000/svg" viewBox="0 0 62 42">
  <path fill-rule="evenodd" clip-rule="evenodd" d="M44.727 0C53.991 0 61.5 7.522 61.5 16.8v9.8c0 8.505-6.884 15.4-15.375 15.4-4.505 0-8.557-1.94-11.369-5.032C33.712 35.819 32.301 35 30.75 35c-1.551 0-2.962.82-4.006 1.968A15.324 15.324 0 0115.375 42C6.884 42 0 35.105 0 26.6v-9.8C0 7.522 7.51 0 16.773 0h27.954zm0 19.6a4.197 4.197 0 004.194-4.2c0-2.32-1.878-4.2-4.194-4.2a4.197 4.197 0 00-4.193 4.2c0 2.32 1.877 4.2 4.193 4.2zM12.58 15.4a1.4 1.4 0 011.398-1.4h2.796a1.4 1.4 0 011.398 1.4v4.2h4.193c.772 0 1.397.627 1.397 1.4v2.8c0 .773-.625 1.4-1.397 1.4H18.17v4.2c0 .773-.625 1.4-1.397 1.4h-2.796a1.399 1.399 0 01-1.398-1.4v-4.2H8.386a1.399 1.399 0 01-1.397-1.4V21c0-.773.625-1.4 1.397-1.4h4.194v-4.2zm36.341 14c0 2.32-1.877 4.2-4.193 4.2a4.197 4.197 0 01-4.193-4.2c0-2.32 1.877-4.2 4.193-4.2a4.197 4.197 0 014.194 4.2zM37.74 26.6a4.197 4.197 0 004.193-4.2c0-2.32-1.878-4.2-4.193-4.2a4.197 4.197 0 00-4.194 4.2c0 2.32 1.878 4.2 4.194 4.2zm18.17-4.2c0 2.32-1.877 4.2-4.193 4.2a4.197 4.197 0 01-4.193-4.2c0-2.32 1.877-4.2 4.193-4.2a4.197 4.197 0 014.193 4.2z" fill="url(#gou6AhxbDjAla)"/>
  <defs>
    <radialGradient id="gou6AhxbDjAla" cx="0" cy="0" r="1" gradientUnits="userSpaceOnUse" gradientTransform="rotate(86.87 14.4 15.209) scale(38.4574 30.3929)">
      <stop stop-color="#FFFDF9"/>
      <stop offset="1" stop-color="#FFFDF9"/>
    </radialGradient>
  </defs>
</svg>
