<svg fill="none" xmlns="http://www.w3.org/2000/svg" viewBox="0 0 64 53">
  <g filter="url(#EDIAR_xyBWkMa)">
    <path fill-rule="evenodd" clip-rule="evenodd" d="M4.36 22.558c17.029-7.395 28.383-12.27 34.064-14.625C54.645 1.207 58.016.039 60.213 0c.483-.008 1.563.111 2.263.677.591.478.754 1.124.831 1.577.078.453.175 1.486.098 2.292-.879 9.207-4.682 31.549-6.617 41.86-.82 4.363-2.431 5.826-3.992 5.97-3.392.31-5.968-2.235-9.253-4.382-5.141-3.359-8.045-5.45-13.035-8.728-5.767-3.788-2.029-5.87 1.258-9.273.86-.89 15.805-14.44 16.094-15.67.036-.154.07-.727-.272-1.03-.341-.302-.845-.198-1.209-.116-.515.117-8.728 5.527-24.638 16.233-2.33 1.595-4.442 2.373-6.334 2.332-2.085-.045-6.097-1.175-9.08-2.142C2.67 28.415-.238 27.788.015 25.775c.132-1.048 1.58-2.12 4.346-3.216z" fill="url(#EDIAR_xyBWkMb)"/>
  </g>
  <defs>
    <radialGradient id="EDIAR_xyBWkMb" cx="0" cy="0" r="1" gradientUnits="userSpaceOnUse" gradientTransform="matrix(2.16603 47.90996 -31.3312 1.4165 29.705 0)">
      <stop stop-color="#F6FAFF"/>
      <stop offset="1" stop-color="#fff"/>
    </radialGradient>
    <filter id="EDIAR_xyBWkMa" x="0" y="-.511" width="63.433" height="53.935" filterUnits="userSpaceOnUse" color-interpolation-filters="sRGB">
      <feFlood flood-opacity="0" result="BackgroundImageFix"/>
      <feBlend in="SourceGraphic" in2="BackgroundImageFix" result="shape"/>
      <feColorMatrix in="SourceAlpha" values="0 0 0 0 0 0 0 0 0 0 0 0 0 0 0 0 0 0 127 0" result="hardAlpha"/>
      <feOffset dy="-.511"/>
      <feGaussianBlur stdDeviation=".767"/>
      <feComposite in2="hardAlpha" operator="arithmetic" k2="-1" k3="1"/>
      <feColorMatrix values="0 0 0 0 0.73 0 0 0 0 0.719185 0 0 0 0 0.681333 0 0 0 1 0"/>
      <feBlend in2="shape" result="effect1_innerShadow_103_4855"/>
      <feColorMatrix in="SourceAlpha" values="0 0 0 0 0 0 0 0 0 0 0 0 0 0 0 0 0 0 127 0" result="hardAlpha"/>
      <feOffset dy="1.023"/>
      <feGaussianBlur stdDeviation=".767"/>
      <feComposite in2="hardAlpha" operator="arithmetic" k2="-1" k3="1"/>
      <feColorMatrix values="0 0 0 0 1 0 0 0 0 1 0 0 0 0 1 0 0 0 0.5 0"/>
      <feBlend in2="effect1_innerShadow_103_4855" result="effect2_innerShadow_103_4855"/>
    </filter>
  </defs>
</svg>
