<svg fill="none" xmlns="http://www.w3.org/2000/svg" viewBox="0 0 47 39">
  <g filter="url(#GtHZIf44H3Lga)">
    <path fill-rule="evenodd" clip-rule="evenodd" d="M3.174 16.421C15.57 11.038 23.834 7.49 27.97 5.774 39.778.88 42.232.028 43.831 0c.352-.006 1.138.081 1.648.493.43.348.548.818.605 1.148.056.33.127 1.081.07 1.668-.639 6.702-3.408 22.966-4.816 30.472-.596 3.176-1.77 4.24-2.906 4.345-2.47.227-4.344-1.627-6.736-3.19-3.742-2.444-5.856-3.967-9.488-6.353-4.198-2.757-1.477-4.273.915-6.75.627-.648 11.506-10.512 11.716-11.407.026-.112.05-.529-.198-.749-.248-.22-.615-.145-.88-.085-.375.085-6.354 4.024-17.935 11.816-1.697 1.162-3.234 1.728-4.61 1.698-1.519-.033-4.44-.856-6.61-1.559-2.663-.863-4.78-1.319-4.595-2.784.096-.764 1.15-1.544 3.163-2.342z" fill="url(#GtHZIf44H3Lgb)"/>
  </g>
  <defs>
    <radialGradient id="GtHZIf44H3Lgb" cx="0" cy="0" r="1" gradientUnits="userSpaceOnUse" gradientTransform="matrix(1.57672 34.87528 -22.807 1.03111 21.624 0)">
      <stop stop-color="#F6FAFF"/>
      <stop offset="1" stop-color="#fff"/>
    </radialGradient>
    <filter id="GtHZIf44H3Lga" x="0" y="-.372" width="46.175" height="39.261" filterUnits="userSpaceOnUse" color-interpolation-filters="sRGB">
      <feFlood flood-opacity="0" result="BackgroundImageFix"/>
      <feBlend in="SourceGraphic" in2="BackgroundImageFix" result="shape"/>
      <feColorMatrix in="SourceAlpha" values="0 0 0 0 0 0 0 0 0 0 0 0 0 0 0 0 0 0 127 0" result="hardAlpha"/>
      <feOffset dy="-.372"/>
      <feGaussianBlur stdDeviation=".558"/>
      <feComposite in2="hardAlpha" operator="arithmetic" k2="-1" k3="1"/>
      <feColorMatrix values="0 0 0 0 0.73 0 0 0 0 0.719185 0 0 0 0 0.681333 0 0 0 1 0"/>
      <feBlend in2="shape" result="effect1_innerShadow_139_5684"/>
      <feColorMatrix in="SourceAlpha" values="0 0 0 0 0 0 0 0 0 0 0 0 0 0 0 0 0 0 127 0" result="hardAlpha"/>
      <feOffset dy=".744"/>
      <feGaussianBlur stdDeviation=".558"/>
      <feComposite in2="hardAlpha" operator="arithmetic" k2="-1" k3="1"/>
      <feColorMatrix values="0 0 0 0 1 0 0 0 0 1 0 0 0 0 1 0 0 0 0.5 0"/>
      <feBlend in2="effect1_innerShadow_139_5684" result="effect2_innerShadow_139_5684"/>
    </filter>
  </defs>
</svg>
