<svg fill="none" xmlns="http://www.w3.org/2000/svg" viewBox="0 0 21 21">
  <path opacity=".4" clip-rule="evenodd" d="M14.376 3.656h-8.18c-1.489 0-2.03.15-2.575.44a2.976 2.976 0 00-1.238 1.239C2.09 5.88 1.94 6.421 1.94 7.91v4.752c0 1.488.15 2.03.442 2.574.285.534.704.953 1.238 1.238.544.292 1.086.442 2.574.442h8.181c1.489 0 2.03-.15 2.575-.442a2.976 2.976 0 001.238-1.238c.291-.544.441-1.086.441-2.574V7.91c0-1.489-.15-2.03-.441-2.575a2.976 2.976 0 00-1.238-1.238c-.545-.291-1.087-.441-2.575-.441z" stroke="#98B2BF" stroke-width=".283"/>
  <path opacity=".4" clip-rule="evenodd" d="M12.662 1.941H7.91c-1.489 0-2.03.15-2.575.442A2.976 2.976 0 004.097 3.62c-.291.544-.441 1.086-.441 2.574v8.181c0 1.489.15 2.03.44 2.575.286.534.705.952 1.239 1.238.545.291 1.086.441 2.575.441h4.752c1.488 0 2.03-.15 2.574-.441a2.976 2.976 0 001.238-1.238c.292-.545.442-1.087.442-2.575v-8.18c0-1.489-.15-2.03-.442-2.575a2.976 2.976 0 00-1.238-1.238c-.544-.292-1.086-.442-2.574-.442z" stroke="#98B2BF" stroke-width=".283"/>
  <path opacity=".4" clip-rule="evenodd" d="M13.52 3.429H7.051c-1.31 0-1.795.109-2.277.366a2.355 2.355 0 00-.98.98c-.257.482-.366.968-.366 2.277v6.467c0 1.31.109 1.796.366 2.277.226.423.558.754.98.98.482.258.968.367 2.277.367h6.467c1.31 0 1.796-.11 2.277-.367a2.35 2.35 0 00.98-.98c.258-.481.367-.967.367-2.277V7.052c0-1.31-.11-1.795-.367-2.277a2.355 2.355 0 00-.98-.98c-.481-.257-.967-.366-2.277-.366z" stroke="#0098EA" stroke-width="1.286"/>
  <path opacity=".4" clip-rule="evenodd" d="M10.286 1.941c-2.304 0-4.39.934-5.9 2.444a8.318 8.318 0 00-2.445 5.9c0 2.305.934 4.391 2.444 5.901a8.318 8.318 0 005.9 2.444 8.318 8.318 0 005.901-2.444 8.318 8.318 0 002.444-5.9c0-2.304-.934-4.39-2.444-5.9a8.318 8.318 0 00-5.9-2.445z" stroke="#98B2BF" stroke-width=".283"/>
</svg>
