<svg fill="none" xmlns="http://www.w3.org/2000/svg" viewBox="0 0 215 211">
  <g filter="url(#vvpXCVf33zr8a)">
    <path d="M84.027 22.013c2.222-6.056 3.334-9.085 4.206-10.627 8.318-14.717 29.517-14.717 37.835 0 .872 1.542 1.983 4.57 4.206 10.627.903 2.461 1.355 3.692 1.846 4.697a21.73 21.73 0 0024.237 11.672c1.092-.242 2.336-.657 4.823-1.485 6.121-2.039 9.182-3.058 10.931-3.338 16.693-2.672 29.91 13.901 23.59 29.58-.662 1.644-2.337 4.401-5.686 9.915-1.362 2.241-2.042 3.361-2.522 4.372a21.73 21.73 0 005.987 26.227c.87.702 1.969 1.416 4.168 2.845 5.41 3.514 8.115 5.271 9.425 6.465 12.497 11.384 7.78 32.052-8.419 36.887-1.698.506-4.898.916-11.297 1.735-2.601.333-3.901.499-4.99.754a21.732 21.732 0 00-16.773 21.033c-.006 1.118.121 2.423.375 5.033.625 6.421.938 9.631.822 11.399-1.109 16.869-20.208 26.067-34.089 16.417-1.455-1.012-3.77-3.258-8.4-7.751-1.882-1.825-2.822-2.738-3.701-3.43a21.73 21.73 0 00-26.902 0c-.878.692-1.819 1.605-3.7 3.43-4.63 4.493-6.946 6.739-8.4 7.751-13.88 9.65-32.98.452-34.09-16.417-.115-1.768.197-4.978.823-11.399.254-2.61.38-3.915.374-5.033a21.731 21.731 0 00-16.773-21.033c-1.088-.255-2.389-.421-4.99-.754-6.399-.819-9.598-1.229-11.296-1.735-16.2-4.835-20.917-25.503-8.42-36.887 1.31-1.194 4.016-2.951 9.426-6.465 2.199-1.429 3.298-2.143 4.168-2.845a21.73 21.73 0 005.986-26.227c-.48-1.01-1.16-2.131-2.52-4.372-3.35-5.514-5.025-8.27-5.688-9.914-6.32-15.68 6.898-32.253 23.59-29.581 1.75.28 4.81 1.3 10.931 3.338 2.488.828 3.732 1.243 4.823 1.485A21.73 21.73 0 0082.181 26.71c.491-1.005.943-2.236 1.846-4.697z" fill="url(#vvpXCVf33zr8b)"/>
    <path d="M84.027 22.013c2.222-6.056 3.334-9.085 4.206-10.627 8.318-14.717 29.517-14.717 37.835 0 .872 1.542 1.983 4.57 4.206 10.627.903 2.461 1.355 3.692 1.846 4.697a21.73 21.73 0 0024.237 11.672c1.092-.242 2.336-.657 4.823-1.485 6.121-2.039 9.182-3.058 10.931-3.338 16.693-2.672 29.91 13.901 23.59 29.58-.662 1.644-2.337 4.401-5.686 9.915-1.362 2.241-2.042 3.361-2.522 4.372a21.73 21.73 0 005.987 26.227c.87.702 1.969 1.416 4.168 2.845 5.41 3.514 8.115 5.271 9.425 6.465 12.497 11.384 7.78 32.052-8.419 36.887-1.698.506-4.898.916-11.297 1.735-2.601.333-3.901.499-4.99.754a21.732 21.732 0 00-16.773 21.033c-.006 1.118.121 2.423.375 5.033.625 6.421.938 9.631.822 11.399-1.109 16.869-20.208 26.067-34.089 16.417-1.455-1.012-3.77-3.258-8.4-7.751-1.882-1.825-2.822-2.738-3.701-3.43a21.73 21.73 0 00-26.902 0c-.878.692-1.819 1.605-3.7 3.43-4.63 4.493-6.946 6.739-8.4 7.751-13.88 9.65-32.98.452-34.09-16.417-.115-1.768.197-4.978.823-11.399.254-2.61.38-3.915.374-5.033a21.731 21.731 0 00-16.773-21.033c-1.088-.255-2.389-.421-4.99-.754-6.399-.819-9.598-1.229-11.296-1.735-16.2-4.835-20.917-25.503-8.42-36.887 1.31-1.194 4.016-2.951 9.426-6.465 2.199-1.429 3.298-2.143 4.168-2.845a21.73 21.73 0 005.986-26.227c-.48-1.01-1.16-2.131-2.52-4.372-3.35-5.514-5.025-8.27-5.688-9.914-6.32-15.68 6.898-32.253 23.59-29.581 1.75.28 4.81 1.3 10.931 3.338 2.488.828 3.732 1.243 4.823 1.485A21.73 21.73 0 0082.181 26.71c.491-1.005.943-2.236 1.846-4.697z" fill="url(#vvpXCVf33zr8c)" fill-opacity=".2"/>
  </g>
  <defs>
    <radialGradient id="vvpXCVf33zr8c" cx="0" cy="0" r="1" gradientUnits="userSpaceOnUse" gradientTransform="rotate(77.314 -4.627 91.927) scale(118.832)">
      <stop stop-color="#fff"/>
      <stop offset="1" stop-color="#fff" stop-opacity="0"/>
    </radialGradient>
    <linearGradient id="vvpXCVf33zr8b" x1="107.15" y1="-41" x2="107.15" y2="260.12" gradientUnits="userSpaceOnUse">
      <stop stop-color="#0067FF"/>
      <stop offset="1" stop-color="#3480F1"/>
    </linearGradient>
    <filter id="vvpXCVf33zr8a" x="-.956" y="-2.343" width="217.826" height="215.172" filterUnits="userSpaceOnUse" color-interpolation-filters="sRGB">
      <feFlood flood-opacity="0" result="BackgroundImageFix"/>
      <feBlend mode="normal" in="SourceGraphic" in2="BackgroundImageFix" result="shape"/>
      <feColorMatrix in="SourceAlpha" type="matrix" values="0 0 0 0 0 0 0 0 0 0 0 0 0 0 0 0 0 0 127 0" result="hardAlpha"/>
      <feOffset/>
      <feGaussianBlur stdDeviation="2.69"/>
      <feComposite in2="hardAlpha" operator="arithmetic" k2="-1" k3="1"/>
      <feColorMatrix type="matrix" values="0 0 0 0 0.203922 0 0 0 0 0.388235 0 0 0 0 0.835294 0 0 0 1 0"/>
      <feBlend mode="normal" in2="shape" result="effect1_innerShadow_76_3941"/>
      <feColorMatrix in="SourceAlpha" type="matrix" values="0 0 0 0 0 0 0 0 0 0 0 0 0 0 0 0 0 0 127 0" result="hardAlpha"/>
      <feOffset dx="2.69" dy="2.69"/>
      <feGaussianBlur stdDeviation="5.381"/>
      <feComposite in2="hardAlpha" operator="arithmetic" k2="-1" k3="1"/>
      <feColorMatrix type="matrix" values="0 0 0 0 0.711393 0 0 0 0 0.827447 0 0 0 0 1 0 0 0 1 0"/>
      <feBlend mode="normal" in2="effect1_innerShadow_76_3941" result="effect2_innerShadow_76_3941"/>
      <feColorMatrix in="SourceAlpha" type="matrix" values="0 0 0 0 0 0 0 0 0 0 0 0 0 0 0 0 0 0 127 0" result="hardAlpha"/>
      <feOffset dx="-1.076" dy="-2.69"/>
      <feGaussianBlur stdDeviation="2.421"/>
      <feComposite in2="hardAlpha" operator="arithmetic" k2="-1" k3="1"/>
      <feColorMatrix type="matrix" values="0 0 0 0 0.0539774 0 0 0 0 0.31863 0 0 0 0 0.712126 0 0 0 0.6 0"/>
      <feBlend mode="normal" in2="effect2_innerShadow_76_3941" result="effect3_innerShadow_76_3941"/>
    </filter>
  </defs>
</svg>
