<svg fill="none" xmlns="http://www.w3.org/2000/svg" viewBox="0 0 260 260">
  <g filter="url(#iynNDfwotPu3a)">
    <path d="M5.107 199.055C0 184.462 0 166.308 0 130c0-36.308 0-54.462 5.107-69.055A91 91 0 0160.945 5.107C75.538 0 93.692 0 130 0c36.308 0 54.462 0 69.055 5.107a90.997 90.997 0 0155.838 55.838C260 75.538 260 93.692 260 130c0 36.308 0 54.462-5.107 69.055a90.995 90.995 0 01-55.838 55.838C184.462 260 166.308 260 130 260c-36.308 0-54.462 0-69.055-5.107a90.997 90.997 0 01-55.838-55.838z" fill="url(#iynNDfwotPu3b)"/>
    <path d="M5.107 199.055C0 184.462 0 166.308 0 130c0-36.308 0-54.462 5.107-69.055A91 91 0 0160.945 5.107C75.538 0 93.692 0 130 0c36.308 0 54.462 0 69.055 5.107a90.997 90.997 0 0155.838 55.838C260 75.538 260 93.692 260 130c0 36.308 0 54.462-5.107 69.055a90.995 90.995 0 01-55.838 55.838C184.462 260 166.308 260 130 260c-36.308 0-54.462 0-69.055-5.107a90.997 90.997 0 01-55.838-55.838z" fill="url(#iynNDfwotPu3c)" fill-opacity=".2"/>
  </g>
  <g filter="url(#iynNDfwotPu3d)">
    <path fill-rule="evenodd" clip-rule="evenodd" d="M99.687 165.286c31.349 31.559 70.528 43.285 87.508 26.19 12.945-13.031 9.253-39.05-7.122-64.663a583.227 583.227 0 0011.319-19.584c3.055-5.53-.663-12.291-6.97-12.669a566.498 566.498 0 00-33.875-1.012h-.138C121.344 69.56 88.753 62.008 73.671 77.19c-16.98 17.095-5.333 56.537 26.016 88.096zm50.722-71.738a566.42 566.42 0 00-33.736 1.012c-6.307.378-10.025 7.139-6.97 12.669a582.332 582.332 0 0033.83 54.032c3.432 4.866 10.597 4.866 14.028 0a581.969 581.969 0 0022.512-34.448c-5.105-7.986-11.443-15.931-18.894-23.432a147.863 147.863 0 00-10.77-9.833z" fill="url(#iynNDfwotPu3e)"/>
  </g>
  <defs>
    <radialGradient id="iynNDfwotPu3c" cx="0" cy="0" r="1" gradientUnits="userSpaceOnUse" gradientTransform="rotate(77.314 -7.382 120.503) scale(102.605)">
      <stop stop-color="#fff"/>
      <stop offset="1" stop-color="#fff" stop-opacity="0"/>
    </radialGradient>
    <radialGradient id="iynNDfwotPu3e" cx="0" cy="0" r="1" gradientUnits="userSpaceOnUse" gradientTransform="rotate(56.172 -45.613 173.763) scale(101.976 59.5021)">
      <stop stop-color="#F6FAFF"/>
      <stop offset="1" stop-color="#fff"/>
    </radialGradient>
    <filter id="iynNDfwotPu3a" x="-1.733" y="-4.333" width="266.067" height="268.667" filterUnits="userSpaceOnUse" color-interpolation-filters="sRGB">
      <feFlood flood-opacity="0" result="BackgroundImageFix"/>
      <feBlend in="SourceGraphic" in2="BackgroundImageFix" result="shape"/>
      <feColorMatrix in="SourceAlpha" values="0 0 0 0 0 0 0 0 0 0 0 0 0 0 0 0 0 0 127 0" result="hardAlpha"/>
      <feOffset/>
      <feGaussianBlur stdDeviation="4.333"/>
      <feComposite in2="hardAlpha" operator="arithmetic" k2="-1" k3="1"/>
      <feColorMatrix values="0 0 0 0 0.203922 0 0 0 0 0.388235 0 0 0 0 0.835294 0 0 0 1 0"/>
      <feBlend in2="shape" result="effect1_innerShadow_99_4774"/>
      <feColorMatrix in="SourceAlpha" values="0 0 0 0 0 0 0 0 0 0 0 0 0 0 0 0 0 0 127 0" result="hardAlpha"/>
      <feOffset dx="4.333" dy="4.333"/>
      <feGaussianBlur stdDeviation="8.667"/>
      <feComposite in2="hardAlpha" operator="arithmetic" k2="-1" k3="1"/>
      <feColorMatrix values="0 0 0 0 0.711393 0 0 0 0 0.827447 0 0 0 0 1 0 0 0 1 0"/>
      <feBlend in2="effect1_innerShadow_99_4774" result="effect2_innerShadow_99_4774"/>
      <feColorMatrix in="SourceAlpha" values="0 0 0 0 0 0 0 0 0 0 0 0 0 0 0 0 0 0 127 0" result="hardAlpha"/>
      <feOffset dx="-1.733" dy="-4.333"/>
      <feGaussianBlur stdDeviation="3.9"/>
      <feComposite in2="hardAlpha" operator="arithmetic" k2="-1" k3="1"/>
      <feColorMatrix values="0 0 0 0 0.0539774 0 0 0 0 0.31863 0 0 0 0 0.712126 0 0 0 0.6 0"/>
      <feBlend in2="effect2_innerShadow_99_4774" result="effect3_innerShadow_99_4774"/>
    </filter>
    <filter id="iynNDfwotPu3d" x="62.4" y="67.6" width="136.067" height="136.933" filterUnits="userSpaceOnUse" color-interpolation-filters="sRGB">
      <feFlood flood-opacity="0" result="BackgroundImageFix"/>
      <feColorMatrix in="SourceAlpha" values="0 0 0 0 0 0 0 0 0 0 0 0 0 0 0 0 0 0 127 0" result="hardAlpha"/>
      <feOffset dy="1.733"/>
      <feGaussianBlur stdDeviation="1.733"/>
      <feComposite in2="hardAlpha" operator="out"/>
      <feColorMatrix values="0 0 0 0 0 0 0 0 0 0 0 0 0 0 0 0 0 0 0.25 0"/>
      <feBlend in2="BackgroundImageFix" result="effect1_dropShadow_99_4774"/>
      <feBlend in="SourceGraphic" in2="effect1_dropShadow_99_4774" result="shape"/>
      <feColorMatrix in="SourceAlpha" values="0 0 0 0 0 0 0 0 0 0 0 0 0 0 0 0 0 0 127 0" result="hardAlpha"/>
      <feOffset dy="-.867"/>
      <feGaussianBlur stdDeviation="1.3"/>
      <feComposite in2="hardAlpha" operator="arithmetic" k2="-1" k3="1"/>
      <feColorMatrix values="0 0 0 0 0.329412 0 0 0 0 0.521569 0 0 0 0 0.796078 0 0 0 1 0"/>
      <feBlend in2="shape" result="effect2_innerShadow_99_4774"/>
      <feColorMatrix in="SourceAlpha" values="0 0 0 0 0 0 0 0 0 0 0 0 0 0 0 0 0 0 127 0" result="hardAlpha"/>
      <feOffset dy="1.733"/>
      <feGaussianBlur stdDeviation="1.3"/>
      <feComposite in2="hardAlpha" operator="arithmetic" k2="-1" k3="1"/>
      <feColorMatrix values="0 0 0 0 1 0 0 0 0 1 0 0 0 0 1 0 0 0 0.5 0"/>
      <feBlend in2="effect2_innerShadow_99_4774" result="effect3_innerShadow_99_4774"/>
    </filter>
    <linearGradient id="iynNDfwotPu3b" x1="130" y1="0" x2="130" y2="260" gradientUnits="userSpaceOnUse">
      <stop stop-color="#0067FF"/>
      <stop offset="1" stop-color="#3480F1"/>
    </linearGradient>
  </defs>
</svg>
