<svg fill="none" xmlns="http://www.w3.org/2000/svg" viewBox="0 0 48 48">
  <g filter="url(#q1q9fCJhJaaDa)">
    <path d="M39.75 0H7.703C1.81 0-1.925 6.356 1.04 11.494l19.778 34.282c1.291 2.238 4.526 2.238 5.816 0l19.783-34.282C49.377 6.364 45.643 0 39.754 0h-.003zM20.803 35.495l-4.307-8.336L6.1 8.57c-.685-1.19.162-2.714 1.597-2.714h13.1V35.5l.004-.005zM41.344 8.567l-10.39 18.597-4.308 8.332V5.852h13.1c1.436 0 2.283 1.525 1.598 2.714z" fill="url(#q1q9fCJhJaaDb)"/>
  </g>
  <defs>
    <radialGradient id="q1q9fCJhJaaDb" cx="0" cy="0" r="1" gradientUnits="userSpaceOnUse" gradientTransform="matrix(1.62044 43.38725 -23.45415 .87597 22.223 0)">
      <stop stop-color="#F6FAFF"/>
      <stop offset="1" stop-color="#fff"/>
    </radialGradient>
    <filter id="q1q9fCJhJaaDa" x="0" y="-.372" width="47.455" height="48.571" filterUnits="userSpaceOnUse" color-interpolation-filters="sRGB">
      <feFlood flood-opacity="0" result="BackgroundImageFix"/>
      <feBlend in="SourceGraphic" in2="BackgroundImageFix" result="shape"/>
      <feColorMatrix in="SourceAlpha" values="0 0 0 0 0 0 0 0 0 0 0 0 0 0 0 0 0 0 127 0" result="hardAlpha"/>
      <feOffset dy="-.372"/>
      <feGaussianBlur stdDeviation=".558"/>
      <feComposite in2="hardAlpha" operator="arithmetic" k2="-1" k3="1"/>
      <feColorMatrix values="0 0 0 0 0.73 0 0 0 0 0.719185 0 0 0 0 0.681333 0 0 0 1 0"/>
      <feBlend in2="shape" result="effect1_innerShadow_139_5686"/>
      <feColorMatrix in="SourceAlpha" values="0 0 0 0 0 0 0 0 0 0 0 0 0 0 0 0 0 0 127 0" result="hardAlpha"/>
      <feOffset dy=".744"/>
      <feGaussianBlur stdDeviation=".558"/>
      <feComposite in2="hardAlpha" operator="arithmetic" k2="-1" k3="1"/>
      <feColorMatrix values="0 0 0 0 1 0 0 0 0 1 0 0 0 0 1 0 0 0 0.5 0"/>
      <feBlend in2="effect1_innerShadow_139_5686" result="effect2_innerShadow_139_5686"/>
    </filter>
  </defs>
</svg>
