<svg fill="none" xmlns="http://www.w3.org/2000/svg" viewBox="0 0 45 45">
  <g clip-path="url(#-n3j14BmU5SRa)" fill="#14161F">
    <path d="M22.4 5.317c2.938 0 5.32-1.19 5.32-2.659C27.72 1.19 25.338 0 22.4 0s-5.32 1.19-5.32 2.658 2.382 2.659 5.32 2.659z"/>
    <path fill-rule="evenodd" clip-rule="evenodd" d="M5.11 11.298L1.12 13.29v16.473c0 2.95 1.63 5.659 4.236 7.043l13.3 7.06a7.98 7.98 0 003.744.933V23.925L43.68 13.29l-3.99-1.993v1.993c0 1.469-2.382 2.659-5.32 2.659s-5.32-1.19-5.32-2.658V7.98c.006 1.466 2.385 2.653 5.32 2.653 2.938 0 5.32-1.19 5.32-2.658s-2.382-2.658-5.32-2.658c-1.809 0-3.407.45-4.368 1.14l-2.282-1.14v2.658c0 1.46-2.353 2.644-5.266 2.658h-.108c-2.913-.014-5.266-1.199-5.266-2.658V5.317l-2.282 1.14c-.961-.69-2.56-1.14-4.368-1.14-2.938 0-5.32 1.19-5.32 2.658s2.382 2.658 5.32 2.658 5.32-1.19 5.32-2.658v5.316c0 1.469-2.382 2.659-5.32 2.659s-5.32-1.19-5.32-2.658v-1.995zM22.4 15.95c-2.935 0-5.314-1.188-5.32-2.653v5.311c0 1.468 2.382 2.659 5.32 2.659s5.32-1.19 5.32-2.659v-5.317c0 1.469-2.382 2.659-5.32 2.659z"/>
  </g>
  <defs>
    <clipPath id="-n3j14BmU5SRa">
      <path fill="#fff" d="M0 0h44.8v44.8H0z"/>
    </clipPath>
  </defs>
</svg>
