<svg fill="none" xmlns="http://www.w3.org/2000/svg" viewBox="0 0 64 64">
  <g clip-path="url(#JcT5S48Dfnfca)" fill="#14161F">
    <path d="M32 7.595c4.197 0 7.6-1.7 7.6-3.797C39.6 1.7 36.197 0 32 0c-4.197 0-7.6 1.7-7.6 3.798 0 2.097 3.403 3.797 7.6 3.797z"/>
    <path fill-rule="evenodd" clip-rule="evenodd" d="M7.3 16.14l-5.7 2.848V42.52c0 4.214 2.328 8.084 6.052 10.061l19 10.087A11.401 11.401 0 0032 64V34.178l30.4-15.19-5.7-2.848v2.848c0 2.097-3.403 3.798-7.6 3.798-4.197 0-7.6-1.7-7.6-3.798v-7.587c.008 2.093 3.408 3.79 7.6 3.79 4.197 0 7.6-1.701 7.6-3.798 0-2.098-3.403-3.798-7.6-3.798-2.584 0-4.867.644-6.24 1.63l-3.26-1.63v3.798c0 2.084-3.36 3.777-7.523 3.797h-.154c-4.162-.02-7.523-1.713-7.523-3.797V7.596l-3.26 1.628c-1.373-.985-3.656-1.629-6.24-1.629-4.197 0-7.6 1.7-7.6 3.798 0 2.097 3.403 3.797 7.6 3.797 4.197 0 7.6-1.7 7.6-3.797v7.595c0 2.097-3.402 3.798-7.6 3.798-4.197 0-7.6-1.7-7.6-3.798V16.14zM32 22.785c-4.192 0-7.592-1.696-7.6-3.79v7.588c0 2.098 3.403 3.798 7.6 3.798 4.197 0 7.6-1.7 7.6-3.798v-7.595c0 2.097-3.403 3.797-7.6 3.797z"/>
  </g>
  <defs>
    <clipPath id="JcT5S48Dfnfca">
      <path fill="#fff" d="M0 0h64v64H0z"/>
    </clipPath>
  </defs>
</svg>
