<svg fill="none" xmlns="http://www.w3.org/2000/svg" viewBox="0 0 36 42">
  <g clip-path="url(#-t-JYcw0KbYia)" fill="#FFFDF9">
    <path d="M36 15.731v18.052h-3.919v3.976H22.078v2.005h-2.072v1.944h-3.989L16 35.684h10.03v-1.887h1.958v-2.045h2.106v-7.904h-4.03v-4.12H14.01v4.1H7.951v2.041H6.115v2.042h-2.13v3.784h2.177v3.989h1.8v6.024H3.986V35.65H2.129v-3.955H0V21.68h2.052v-5.997h4.053V7.807h1.944V5.775h1.974V3.656h1.944V1.655h4.12V0h6.038v1.682h3.889v2.031h1.988v2.12h2.092v1.944h1.957v7.954H36z"/>
    <path d="M22.08 25.866v3.832h1.935v1.994h2.041v-1.994h1.934v-3.832h-5.91z"/>
  </g>
  <defs>
    <clipPath id="-t-JYcw0KbYia">
      <path fill="#fff" d="M0 0h36v41.708H0z"/>
    </clipPath>
  </defs>
</svg>
