<svg fill="none" xmlns="http://www.w3.org/2000/svg" viewBox="0 0 46 41">
  <g clip-path="url(#zFzynv5YKr0Wa)" fill="#FFFDF9">
    <path d="M42.358 29.302c.518-.26.978-.175 1.304.3.321.467.21.942-.109 1.378-.285.39-.657.791-1.117.802-.837.019-1.04.39-.874 1.156-.99-2.3-2.486-4.094-4.681-5.274-.247-.132-.458-.26-.751-.174-.93.274-1.837.595-2.633 1.171-.361.262-.553.627-.692 1.03-.141.414-.273.832-.49 1.278-.273-1.671-1.393-2.582-2.764-3.256-1.336-.656-2.808-1.138-4.233-.873-1.042.193-2.075.152-3.103.288-.964.13-1.97-.059-2.958-.08-1.226-.025-1.226-.013-1.415 1.204-.418-.362-.802-.696-1.187-1.028-.421-.362-.753-.432-1.137.12-.783 1.131-1.638 2.211-2.59 3.482.21-1.186.152-2.181.47-3.12.105-.308-.01-.447-.304-.542-.603-.193-1.22-.192-1.84-.193-.417 0-.452.323-.52.605-.426 1.773-1.071 3.527-.515 5.417-.134-.328-.292-.649-.399-.985-.535-1.685-1.312-3.259-2.156-4.805-.195-.357-.354-.662-.866-.658-.495.005-.748.203-.985.612-1.12 1.939-2.153 3.906-2.39 6.236-.041-.573-.325-.707-.8-.598-.204.046-.466.187-.607-.061-.113-.197.113-.356.195-.528.041-.088.093-.172.235-.429l-1.46.786c-.085-.169.055-.207.15-.255 1.557-.793 2.24-2.288 3-3.723.194-.364.085-.64-.172-.936-1.22-1.401-2.424-2.818-3.738-4.35l.654.447c.463-1.391-.479-2.55-.565-3.882l.7 1.41.068-.027-.704-3.703c-.811-4.261-.223-8.432.784-12.585.37-1.524.885-2.984 1.491-4.424.263-.626.59-.45.78-.067 1.38 2.778 3.89 4.45 6.159 6.358 2.202 1.853 4.303 3.814 6.364 6.064-.085-.595-.55-.76-.523-1.28.312.354.621.71.937 1.061.863.958 1.736 1.906 2.587 2.875.284.323.476.457.885.104 2.392-2.052 5.228-3.265 8.208-4.224-.808.883-1.863 1.513-2.56 2.547.697-.34 1.395-.678 2.091-1.018l.059.088c-.155.13-.39.23-.45.392-.358.982-1.385 1.14-2.111 1.676.369.444 1.068 0 1.3.64.206.57-.373.466-.604.704.555.156.95.097 1.217-.424 1.484-2.884 3.796-5.04 6.211-7.12 2.08-1.793 3.961-3.806 6.214-5.42 1.23-.88 2.357-1.96 2.972-3.493 2.941 7.1 3.583 14.295 1.144 21.674.442-.506.717-1.079.961-1.668.237-.57.466-1.141.76-1.687-.662 2.11-1.494 4.153-2.458 6.261.66-.344.874-.99 1.414-1.34l-1.735 2.605c.506.06 1.223-.1 2.15-.48-.013.206-.168.298-.287.388-1.278.955-2.25 2.185-3.189 3.455-.21.284-.117.473.034.649.241.276.314-.061.426-.175.217-.22.454-.382.77-.394-.333.284-.746.487-.882.96-.204.713.273 1.292.963 1.152.592-.12 1.153-.849 1.08-1.415-.096-.74-.66-.676-1.184-.679l.001-.002zM12.311 18.88c-.146-1.193-.135-2.361-.46-3.49-.994-3.47-2.924-6.427-5.072-9.26-.525-.693-1.162-1.292-2.015-1.593-.844-.296-1.38-.159-1.87.58C2.15 6.235 1.61 7.452 1.37 8.788c-.475 2.635-.12 5.233.372 7.82.272 1.435.966 2.64 1.899 3.797 1.156 1.431 2.413 1.955 4.188 1.388.487-.155.893-.686 1.533-.49L7.367 20.26c.907.131 1.656.448 2.618.765-1.184-1.354-1.934-2.751-2.791-4.24 1.668.705 3.101 1.519 4.495 2.395.186-.192-.144-.396.067-.56.247-.084.24.29.552.26l.003-.002zm26.18 1.622c.485.23 1.11.223 1.311.838-.393.23-.875.11-1.292.433.37.156.664.281.957.403.325.134.567.048.758-.253.912-1.445 1.946-2.824 2.718-4.339 1.144-2.24.958-4.692.822-7.123-.123-2.146-1.179-3.847-2.405-5.482-.466-.62-.998-.735-1.455-.265-1.478 1.524-3.079 2.973-3.878 5.013-.653 1.671-.857 3.452-1.15 5.208-.12.715-.253 1.43-.055 2.384.284-.405.465-.66.645-.918-.037.618-.427 1.074-.427 1.8.363-.543.852-.272 1.252-.428a26.405 26.405 0 012.25-.753c.34-.1.712-.263 1.066.003a11.843 11.843 0 00-1.553 3.097c.622-.106 1.101-.365 1.665-.106-.366.351-.836.256-1.232.49l.003-.002zm1.036 7.368c-.029 1.048.567 1.573 1.275 1.197.768-.41 1.434-1.866 1.22-2.702-.144-.561-.503-.907-1.095-.951-.612-.046-.972.28-1.16.836-.185.548-.161 1.127-.242 1.622l.002-.002zm-23.741-2.038c-.015-.56-.83-1.318-1.429-1.3-.617.017-.775.449-.781.965-.01.778.49 1.305 1.211 1.304.572 0 1.014-.429.999-.968v-.001zm1.288-.9c.342-.017.64-.157.755-.542.128-.431-.438-1.45-.911-1.654-.357-.154-.671-.103-.918.217a.657.657 0 00-.04.062c-.362.634.35 1.894 1.116 1.917h-.002zm21.109 1.732c-.103-.41.092-1.028-.592-1.076-.487-.034-.595.391-.557.775.05.487.127 1.069.75 1.098.505.024.35-.474.399-.799v.002zM19.361 23.77c-.105-.293-.076-.74-.515-.786-.306-.032-.395.27-.355.535.05.334.086.74.543.757.275.01.34-.237.327-.506z"/>
    <path d="M25.647 36.107c-.022.435.097.887.184 1.345.075.383.212.584.648.408.71-.285 1.439-.531 2.151-.814.421-.166.804-.387.896-.903.037-.208.216-.354.396-.418 1.442-.512 1.92-1.755 2.397-3.06.155.983.307 1.959.622 2.9.184.551.211 1.19.877 1.454.059.024.135.114.132.169-.034.983.759.924 1.369 1.093.595.167 1.205.293 1.781.51.576.22 1.205-.047 1.774.282.221.128.424-.188.619-.333.409-.306.834-.527 1.471-.158-.943.494-1.611 1.265-2.702 1.372-1.507.147-3.009.343-4.513.055-.908-.176-1.635-.564-1.921-1.576-.2-.707-.632-1.338-.832-2.06-.134-.486-.357-.162-.503.005-.845.961-1.815 1.737-3.002 2.254-.58.252-1.185.346-1.782.497-.28.072-.498-.017-.6-.291-.167-.457-.373-.316-.761-.204-1.09.312-2.222.467-3.332.711-1.567.345-1.683.28-2.06-1.348-.027-.116-.014-.251-.242-.351-.456 1.184-1.215.82-2.038.382-.514-.272-1.088-.43-1.656-.647.133 1.495.132 1.507-1.356 1.422-.439-.025-.667.072-.915.499-.36.62-1.11.87-1.677 1.302-.086.066-.307.037-.421-.025a14.405 14.405 0 01-2.777-2.018c.588-.074.94-.38 1.452-.439.704-.079 1.46-.251 1.99-.867.095-.11.372-.084.565-.087.614-.009 1.225-.003 1.828-.003-.093-.364-.21-.766-.29-1.175-.04-.203-.191-.469.038-.615.182-.116.37.085.531.183.832.503 1.74.838 2.62 1.232.394.176.633.131.838-.268.271-.523.988-.688 1.194-1.361.162.675.338 1.348.479 2.03.064.312.131.488.52.406 1.402-.293 2.835-.406 4.225-.781.622-.169 1.103-.615 1.784-.707l-.001-.002z"/>
    <path d="M6.712 40.824c-1.751.077-3.013-.966-4.325-1.892-.12-.085-.256-.195-.197-.361.084-.231.241-.002.37-.033a6.265 6.265 0 012.507-.076c.291.05.35-.05.31-.31-.038-.267-.115-.553-.065-.807.11-.557-.116-1.24.722-1.521 1.686-.566 2.259-.131 2.067 1.674-.02.177.046.363-.304.317-.333-.045-.25.318-.225.506.075.562.161 1.128.302 1.677.198.768.176.821-.64.826h-.522zm28.874-6.961c-.614-.926-.273-1.864.028-2.765.204-.611.808-.524 1.259-.363 1.096.393 2.227 1.38 2.32 2.8.014.197.013.395.01.591-.023 1.66-.967 2.243-2.507 1.552.21.024.453.14.538-.187.12-.462-.388-1.808-.782-2.092-.188-.136-.395-.243-.622-.161-.298.107-.286.366-.246.622l.002.003zm-18.722-.241c-.669-.244-1.249-.446-1.822-.666-.198-.076-.464-.152-.33-.462.543-1.257 1.16-2.476 2.445-3.14.745-.385.895-.254.931.597.027.664.063 1.328.112 1.99.033.427-.05.589-.558.522-.68-.09-1.048.482-.777 1.16h-.001zm11.039-1.661c0-.518.03-1.039-.007-1.555-.05-.683.36-.59.748-.457.603.207 1.243 1.22 1.144 1.85-.143.909-.54 1.678-1.36 2.187-.346.214-.522.255-.503-.251.024-.591.006-1.183.006-1.776h-.028v.002zm-3.012.571c-.35-1.253-1.147-1.835-2.391-1.745-.37.026-.749.03-1.103.122-.571.148-.724-.11-.81-.613-.098-.576.187-.677.652-.688.94-.02 1.877-.06 2.814-.098.59-.024.917.15.851.842-.064.677-.013 1.365-.013 2.18zm-.753.354c.196.052.48-.129.51.158.024.226-.055.524-.348.59-.94.21-1.882.42-2.833.584-.46.08-.364-.352-.443-.614-.1-.332.083-.34.339-.366.936-.102 1.867-.234 2.775-.35v-.002zM6.741 31.133c.176.48.27.729.356.98.413 1.237.409 1.227-.823 1.576-.332.094-.488.084-.365-.303.104-.326.223-.65.343-.97.133-.362.273-.72.49-1.283zm28.913 5.31c.338.04.638.183.707.53.055.275-.207.378-.432.37-.35-.011-.6-.188-.634-.572-.022-.258.115-.353.359-.328z"/>
  </g>
  <defs>
    <clipPath id="zFzynv5YKr0Wa">
      <path fill="#fff" d="M0 0h45.258v40.831H0z"/>
    </clipPath>
  </defs>
</svg>
